<svg width="65" height="40" viewBox="0 0 65 40" fill="none" xmlns="http://www.w3.org/2000/svg">
<path d="M0 0H59C62.3137 0 65 2.68629 65 6V34C65 37.3137 62.3137 40 59 40H0V0Z" fill="#47ED2B"/>
<path fill-rule="evenodd" clip-rule="evenodd" d="M32.3333 14.6667C29.756 14.6667 27.6667 16.756 27.6667 19.3334C27.6667 21.9107 29.756 24 32.3333 24C34.9107 24 37 21.9107 37 19.3334C37 16.756 34.9107 14.6667 32.3333 14.6667ZM26.3333 19.3334C26.3333 16.0197 29.0196 13.3334 32.3333 13.3334C35.647 13.3334 38.3333 16.0197 38.3333 19.3334C38.3333 22.6471 35.647 25.3334 32.3333 25.3334C29.0196 25.3334 26.3333 22.6471 26.3333 19.3334Z" fill="white"/>
<path fill-rule="evenodd" clip-rule="evenodd" d="M35.6286 22.6286C35.8889 22.3683 36.3111 22.3683 36.5714 22.6286L39.4714 25.5286C39.7318 25.789 39.7318 26.2111 39.4714 26.4714C39.2111 26.7318 38.7889 26.7318 38.5286 26.4714L35.6286 23.5714C35.3682 23.3111 35.3682 22.889 35.6286 22.6286Z" fill="white"/>
</svg>
