<svg width="12" height="14" viewBox="0 0 12 14" fill="none" xmlns="http://www.w3.org/2000/svg">
<path fill-rule="evenodd" clip-rule="evenodd" d="M5.64186 0.706252C5.85251 0.542415 6.14747 0.542415 6.35812 0.706252L11.6081 4.78959C11.7502 4.9001 11.8333 5.07003 11.8333 5.25004V11.6667C11.8333 12.1308 11.6489 12.576 11.3208 12.9041C10.9926 13.2323 10.5475 13.4167 10.0833 13.4167H1.91666C1.45253 13.4167 1.00741 13.2323 0.67922 12.9041C0.351031 12.576 0.166656 12.1308 0.166656 11.6667V5.25004C0.166656 5.07003 0.249766 4.9001 0.391858 4.78959L5.64186 0.706252ZM1.33332 5.53534V11.6667C1.33332 11.8214 1.39478 11.9698 1.50418 12.0792C1.61357 12.1886 1.76195 12.25 1.91666 12.25H10.0833C10.238 12.25 10.3864 12.1886 10.4958 12.0792C10.6052 11.9698 10.6667 11.8214 10.6667 11.6667V5.53534L5.99999 1.90571L1.33332 5.53534Z" fill="white"/>
<path fill-rule="evenodd" clip-rule="evenodd" d="M3.66666 7.00004C3.66666 6.67787 3.92782 6.41671 4.24999 6.41671H7.74999C8.07216 6.41671 8.33332 6.67787 8.33332 7.00004V12.8334C8.33332 13.1555 8.07216 13.4167 7.74999 13.4167C7.42782 13.4167 7.16666 13.1555 7.16666 12.8334V7.58337H4.83332V12.8334C4.83332 13.1555 4.57216 13.4167 4.24999 13.4167C3.92782 13.4167 3.66666 13.1555 3.66666 12.8334V7.00004Z" fill="white"/>
</svg>
