<svg width="163" height="18" viewBox="0 0 163 18" fill="none" xmlns="http://www.w3.org/2000/svg">
<g filter="url(#filter0_d_307_3)">
<path d="M13.66 9.516H10.804V9.132C11.26 9.132 11.564 9.068 11.716 8.94C11.844 8.82 11.908 8.644 11.908 8.412V1.92C11.404 3.216 10.908 4.496 10.42 5.76C9.94 7.016 9.456 8.292 8.968 9.588H8.596C8.116 8.316 7.648 7.056 7.192 5.808C6.736 4.552 6.268 3.284 5.788 2.004V8.412C5.788 8.676 5.856 8.864 5.992 8.976C6.152 9.08 6.428 9.132 6.82 9.132V9.516H4.36V9.132C4.752 9.132 5.008 9.088 5.128 9C5.256 8.904 5.32 8.756 5.32 8.556V2.196C5.32 1.964 5.256 1.8 5.128 1.704C5 1.6 4.748 1.548 4.372 1.548V1.152H6.364C6.796 2.336 7.228 3.504 7.66 4.656C8.1 5.808 8.536 6.98 8.968 8.172C9.4 6.98 9.832 5.808 10.264 4.656C10.704 3.504 11.14 2.336 11.572 1.152H13.66V1.548C13.196 1.548 12.912 1.6 12.808 1.704C12.72 1.816 12.676 1.968 12.676 2.16V8.412C12.676 8.66 12.728 8.836 12.832 8.94C12.984 9.068 13.26 9.132 13.66 9.132V9.516ZM27.5291 9.516H24.6971V9.132C25.0891 9.132 25.3611 9.08 25.5131 8.976C25.6491 8.88 25.7171 8.72 25.7171 8.496V2.244C25.7171 1.988 25.6491 1.804 25.5131 1.692C25.3531 1.58 25.0811 1.524 24.6971 1.524V1.152H27.5291V1.524C27.3851 1.524 27.2571 1.536 27.1451 1.56C27.0411 1.576 26.9491 1.596 26.8691 1.62C26.7171 1.676 26.6171 1.756 26.5691 1.86C26.5211 1.956 26.4971 2.084 26.4971 2.244V8.496C26.4971 8.736 26.5571 8.896 26.6771 8.976C26.8371 9.08 27.1211 9.132 27.5291 9.132V9.516ZM46.3927 9.516H43.4047V9.108C43.7647 9.108 44.0247 9.084 44.1847 9.036C44.3527 8.988 44.4567 8.916 44.4967 8.82C44.5047 8.812 44.5087 8.788 44.5087 8.748C44.5087 8.708 44.5007 8.668 44.4847 8.628C44.4687 8.58 44.4527 8.532 44.4367 8.484C44.4047 8.42 44.3727 8.356 44.3407 8.292C44.3167 8.22 44.2887 8.148 44.2567 8.076C44.1687 7.812 44.0767 7.552 43.9807 7.296C43.8847 7.04 43.7927 6.784 43.7047 6.528H40.4167C40.3207 6.816 40.2207 7.104 40.1167 7.392C40.0207 7.68 39.9247 7.972 39.8287 8.268C39.7887 8.348 39.7607 8.424 39.7447 8.496C39.7367 8.56 39.7327 8.62 39.7327 8.676C39.7327 8.772 39.7527 8.84 39.7927 8.88C39.8647 9.032 40.1927 9.108 40.7767 9.108V9.516H38.1967V9.108C38.4047 9.108 38.5727 9.08 38.7007 9.024C38.8367 8.976 38.9607 8.884 39.0727 8.748C39.1287 8.676 39.1807 8.584 39.2287 8.472C39.2767 8.36 39.3287 8.236 39.3847 8.1C39.4327 7.964 39.5167 7.72 39.6367 7.368C39.7647 7.016 39.9087 6.608 40.0687 6.144C40.2287 5.68 40.4007 5.192 40.5847 4.68C40.7687 4.168 40.9407 3.68 41.1007 3.216C41.2607 2.752 41.4007 2.344 41.5207 1.992C41.6487 1.64 41.7367 1.396 41.7847 1.26C41.8887 1.204 41.9927 1.152 42.0967 1.104C42.2007 1.048 42.3047 0.992 42.4087 0.935999C42.8887 2.184 43.3607 3.42 43.8247 4.644C44.2887 5.86 44.7607 7.092 45.2407 8.34C45.3447 8.612 45.4687 8.808 45.6127 8.928C45.7807 9.048 46.0407 9.108 46.3927 9.108V9.516ZM43.5487 6.048C43.2927 5.368 43.0327 4.688 42.7687 4.008C42.5127 3.328 42.2567 2.648 42.0007 1.968C41.7607 2.648 41.5207 3.328 41.2807 4.008C41.0487 4.688 40.8127 5.368 40.5727 6.048H43.5487ZM66.2186 9.516H63.3626V9.132C63.8186 9.132 64.1226 9.068 64.2746 8.94C64.4026 8.82 64.4666 8.644 64.4666 8.412V1.92C63.9626 3.216 63.4666 4.496 62.9786 5.76C62.4986 7.016 62.0146 8.292 61.5266 9.588H61.1546C60.6746 8.316 60.2066 7.056 59.7506 5.808C59.2946 4.552 58.8266 3.284 58.3466 2.004V8.412C58.3466 8.676 58.4146 8.864 58.5506 8.976C58.7106 9.08 58.9866 9.132 59.3786 9.132V9.516H56.9186V9.132C57.3106 9.132 57.5666 9.088 57.6866 9C57.8146 8.904 57.8786 8.756 57.8786 8.556V2.196C57.8786 1.964 57.8146 1.8 57.6866 1.704C57.5586 1.6 57.3066 1.548 56.9306 1.548V1.152H58.9226C59.3546 2.336 59.7866 3.504 60.2186 4.656C60.6586 5.808 61.0946 6.98 61.5266 8.172C61.9586 6.98 62.3906 5.808 62.8226 4.656C63.2626 3.504 63.6986 2.336 64.1306 1.152H66.2186V1.548C65.7546 1.548 65.4706 1.6 65.3666 1.704C65.2786 1.816 65.2346 1.968 65.2346 2.16V8.412C65.2346 8.66 65.2866 8.836 65.3906 8.94C65.5426 9.068 65.8186 9.132 66.2186 9.132V9.516ZM80.0877 9.516H77.2557V9.132C77.6477 9.132 77.9197 9.08 78.0717 8.976C78.2077 8.88 78.2757 8.72 78.2757 8.496V2.244C78.2757 1.988 78.2077 1.804 78.0717 1.692C77.9117 1.58 77.6397 1.524 77.2557 1.524V1.152H80.0877V1.524C79.9437 1.524 79.8157 1.536 79.7037 1.56C79.5997 1.576 79.5077 1.596 79.4277 1.62C79.2757 1.676 79.1757 1.756 79.1277 1.86C79.0797 1.956 79.0557 2.084 79.0557 2.244V8.496C79.0557 8.736 79.1157 8.896 79.2357 8.976C79.3957 9.08 79.6797 9.132 80.0877 9.132V9.516ZM131.888 1.152C132.008 1.496 132.128 1.836 132.248 2.172C132.368 2.508 132.484 2.856 132.596 3.216C132.532 3.232 132.472 3.252 132.416 3.276C132.368 3.3 132.312 3.32 132.248 3.336C132.096 3 131.948 2.728 131.804 2.52C131.668 2.304 131.532 2.132 131.396 2.004C131.22 1.844 131.012 1.736 130.772 1.68C130.532 1.624 130.296 1.596 130.064 1.596C129.6 1.596 129.296 1.632 129.152 1.704C128.992 1.776 128.912 1.92 128.912 2.136V8.508C128.912 8.74 129 8.904 129.176 9C129.336 9.088 129.684 9.132 130.22 9.132V9.516H126.836V9.132C127.316 9.132 127.64 9.092 127.808 9.012C128.032 8.908 128.144 8.74 128.144 8.508V2.04C128.144 1.872 128.08 1.756 127.952 1.692C127.832 1.628 127.588 1.596 127.22 1.596C126.94 1.596 126.652 1.62 126.356 1.668C126.068 1.716 125.82 1.828 125.612 2.004C125.524 2.076 125.44 2.164 125.36 2.268C125.28 2.364 125.188 2.492 125.084 2.652C125.02 2.756 124.96 2.86 124.904 2.964C124.848 3.06 124.788 3.164 124.724 3.276C124.676 3.252 124.628 3.232 124.58 3.216C124.54 3.192 124.496 3.168 124.448 3.144C124.568 2.808 124.688 2.476 124.808 2.148C124.928 1.82 125.048 1.488 125.168 1.152H131.888ZM147.81 1.548C147.386 1.548 147.098 1.6 146.946 1.704C146.826 1.792 146.766 1.952 146.766 2.184V6.9C146.766 7.676 146.566 8.312 146.166 8.808C145.654 9.416 144.826 9.72 143.682 9.72C142.826 9.72 142.13 9.472 141.594 8.976C141.026 8.432 140.742 7.7 140.742 6.78V2.196C140.742 1.956 140.67 1.792 140.526 1.704C140.374 1.6 140.074 1.548 139.626 1.548V1.152H142.626V1.548C142.17 1.548 141.866 1.6 141.714 1.704C141.594 1.792 141.534 1.956 141.534 2.196V6.852C141.534 7.604 141.754 8.188 142.194 8.604C142.626 9.012 143.218 9.216 143.97 9.216C144.538 9.216 145.014 9.06 145.398 8.748C145.974 8.316 146.262 7.688 146.262 6.864V2.184C146.262 1.96 146.194 1.8 146.058 1.704C145.906 1.6 145.618 1.548 145.194 1.548V1.152H147.81V1.548ZM158.864 9.516H157.304C156.936 8.836 156.568 8.168 156.2 7.512C155.832 6.848 155.464 6.176 155.096 5.496H153.524V8.376C153.524 8.664 153.596 8.86 153.74 8.964C153.924 9.076 154.216 9.132 154.616 9.132V9.516H151.652V9.132C152.092 9.132 152.392 9.076 152.552 8.964C152.696 8.844 152.768 8.652 152.768 8.388V2.244C152.768 2.02 152.692 1.852 152.54 1.74C152.388 1.62 152.092 1.56 151.652 1.56V1.152H155.348C157.18 1.152 158.096 1.868 158.096 3.3C158.096 3.812 157.972 4.24 157.724 4.584C157.356 5.072 156.752 5.364 155.912 5.46C156.216 5.996 156.516 6.528 156.812 7.056C157.108 7.584 157.408 8.116 157.712 8.652C157.816 8.828 157.952 8.952 158.12 9.024C158.296 9.096 158.544 9.132 158.864 9.132V9.516ZM157.28 3.276C157.28 2.756 157.108 2.348 156.764 2.052C156.412 1.748 155.944 1.596 155.36 1.596H154.304C154.008 1.596 153.808 1.644 153.704 1.74C153.584 1.852 153.524 2.016 153.524 2.232V5.028H155.504C156.024 5.028 156.448 4.872 156.776 4.56C157.112 4.224 157.28 3.796 157.28 3.276Z" fill="#F5189D"/>
<path d="M13.66 9.516V10.516H14.66V9.516H13.66ZM10.804 9.516H9.804V10.516H10.804V9.516ZM10.804 9.132V8.132H9.804V9.132H10.804ZM11.716 8.94L12.3601 9.70491L12.3805 9.68775L12.3999 9.66954L11.716 8.94ZM11.908 1.92H12.908L10.976 1.55755L11.908 1.92ZM10.42 5.76L9.48711 5.39983L9.48589 5.40302L10.42 5.76ZM8.968 9.588V10.588H9.66L9.90385 9.94039L8.968 9.588ZM8.596 9.588L7.6604 9.94106L7.90453 10.588H8.596V9.588ZM7.192 5.808L6.25203 6.14926L6.25274 6.15119L7.192 5.808ZM5.788 2.004L6.72433 1.65288L4.788 2.004H5.788ZM5.992 8.976L5.35629 9.74793L5.39978 9.78374L5.44701 9.81444L5.992 8.976ZM6.82 9.132H7.82V8.132H6.82V9.132ZM6.82 9.516V10.516H7.82V9.516H6.82ZM4.36 9.516H3.36V10.516H4.36V9.516ZM4.36 9.132V8.132H3.36V9.132H4.36ZM5.128 9L5.7194 9.80645L5.728 9.8L5.128 9ZM5.128 1.704L4.49741 2.48011L4.51247 2.49235L4.528 2.504L5.128 1.704ZM4.372 1.548H3.372V2.548H4.372V1.548ZM4.372 1.152V0.151999H3.372V1.152H4.372ZM6.364 1.152L7.30342 0.809237L7.06362 0.151999H6.364V1.152ZM7.66 4.656L6.72365 5.00713L6.72582 5.0128L7.66 4.656ZM8.968 8.172L8.02784 8.51273L8.968 11.1069L9.90816 8.51273L8.968 8.172ZM10.264 4.656L9.3298 4.29919L9.32767 4.30488L10.264 4.656ZM11.572 1.152V0.151999H10.8724L10.6326 0.809237L11.572 1.152ZM13.66 1.152H14.66V0.151999H13.66V1.152ZM13.66 1.548V2.548H14.66V1.548H13.66ZM12.808 1.704L12.1009 0.996893L12.0586 1.03917L12.0217 1.08618L12.808 1.704ZM12.832 8.94L12.1249 9.64711L12.1551 9.67736L12.1879 9.70491L12.832 8.94ZM13.66 9.132H14.66V8.132H13.66V9.132ZM13.66 8.516H10.804V10.516H13.66V8.516ZM11.804 9.516V9.132H9.804V9.516H11.804ZM10.804 10.132C11.0723 10.132 11.3368 10.1137 11.58 10.0625C11.8111 10.0139 12.1063 9.91864 12.3601 9.70491L11.0719 8.17509C11.127 8.12865 11.1714 8.10828 11.1854 8.10236C11.1998 8.09631 11.1967 8.09941 11.168 8.10545C11.1072 8.11826 10.9917 8.132 10.804 8.132V10.132ZM12.3999 9.66954C12.7888 9.30498 12.908 8.82716 12.908 8.412H10.908C10.908 8.43824 10.9041 8.42042 10.9202 8.37626C10.9382 8.32689 10.9739 8.26503 11.0321 8.21046L12.3999 9.66954ZM12.908 8.412V1.92H10.908V8.412H12.908ZM10.976 1.55755C10.4717 2.85429 9.97541 4.13505 9.48711 5.39983L11.3529 6.12017C11.8406 4.85695 12.3363 3.57771 12.84 2.28245L10.976 1.55755ZM9.48589 5.40302C9.00529 6.66059 8.52071 7.93812 8.03215 9.23561L9.90385 9.94039C10.3913 8.64588 10.8747 7.37141 11.3541 6.11698L9.48589 5.40302ZM8.968 8.588H8.596V10.588H8.968V8.588ZM9.5316 9.23494C9.05281 7.96615 8.58603 6.70944 8.13126 5.46481L6.25274 6.15119C6.70997 7.40256 7.17919 8.66585 7.6604 9.94106L9.5316 9.23494ZM8.13197 5.46674C7.67475 4.20737 7.20553 2.93608 6.72433 1.65288L4.85167 2.35512C5.33047 3.63192 5.79725 4.89663 6.25203 6.14926L8.13197 5.46674ZM4.788 2.004V8.412H6.788V2.004H4.788ZM4.788 8.412C4.788 8.82286 4.89357 9.36686 5.35629 9.74793L6.62771 8.20407C6.71601 8.27679 6.76076 8.3594 6.77938 8.41086C6.7952 8.45461 6.788 8.46305 6.788 8.412H4.788ZM5.44701 9.81444C5.86748 10.0877 6.40046 10.132 6.82 10.132V8.132C6.66376 8.132 6.56248 8.12128 6.50415 8.11029C6.43922 8.09806 6.46875 8.0932 6.53699 8.13756L5.44701 9.81444ZM5.82 9.132V9.516H7.82V9.132H5.82ZM6.82 8.516H4.36V10.516H6.82V8.516ZM5.36 9.516V9.132H3.36V9.516H5.36ZM4.36 10.132C4.58726 10.132 4.81093 10.1197 5.01539 10.0845C5.19819 10.0531 5.47355 9.98667 5.71936 9.8064L4.53664 8.1936C4.60783 8.14139 4.66464 8.12004 4.68126 8.11421C4.69998 8.10763 4.70112 8.10924 4.67661 8.11345C4.62507 8.12231 4.52474 8.132 4.36 8.132V10.132ZM5.728 9.8C6.17029 9.46829 6.32 8.98348 6.32 8.556H4.32C4.32 8.55132 4.3206 8.49765 4.35414 8.42009C4.39065 8.33566 4.45164 8.25727 4.528 8.2L5.728 9.8ZM6.32 8.556V2.196H4.32V8.556H6.32ZM6.32 2.196C6.32 1.79806 6.20687 1.26316 5.728 0.904L4.528 2.504C4.42825 2.42919 4.36912 2.33608 4.34042 2.26254C4.31535 2.1983 4.32 2.16698 4.32 2.196H6.32ZM5.75859 0.927886C5.51953 0.733643 5.24863 0.649634 5.04509 0.607633C4.82984 0.563217 4.59985 0.547999 4.372 0.547999V2.548C4.44353 2.548 4.50181 2.5505 4.54823 2.55434C4.5951 2.55822 4.62497 2.56308 4.64091 2.56637C4.65763 2.56982 4.65113 2.56993 4.62898 2.56083C4.60722 2.5519 4.55721 2.5287 4.49741 2.48011L5.75859 0.927886ZM5.372 1.548V1.152H3.372V1.548H5.372ZM4.372 2.152H6.364V0.151999H4.372V2.152ZM5.42458 1.49476C5.85757 2.68149 6.2906 3.85227 6.72367 5.00712L8.59633 4.30488C8.1654 3.15573 7.73443 1.99051 7.30342 0.809237L5.42458 1.49476ZM6.72582 5.0128C7.16372 6.15932 7.59773 7.32595 8.02784 8.51273L9.90816 7.83127C9.47427 6.63405 9.03628 5.45668 8.59418 4.2992L6.72582 5.0128ZM9.90816 8.51273C10.3389 7.3241 10.7697 6.15556 11.2003 5.00712L9.32767 4.30488C8.89434 5.46044 8.46106 6.6359 8.02784 7.83127L9.90816 8.51273ZM11.1982 5.0128C11.64 3.85604 12.0777 2.68335 12.5114 1.49476L10.6326 0.809237C10.2023 1.98865 9.768 3.15196 9.32982 4.2992L11.1982 5.0128ZM11.572 2.152H13.66V0.151999H11.572V2.152ZM12.66 1.152V1.548H14.66V1.152H12.66ZM13.66 0.547999C13.3992 0.547999 13.1449 0.561969 12.9189 0.603352C12.7381 0.636448 12.3798 0.717961 12.1009 0.996893L13.5151 2.41111C13.4629 2.46332 13.4134 2.49842 13.3767 2.52086C13.3399 2.54332 13.3102 2.55656 13.2928 2.56356C13.2605 2.57653 13.2511 2.57577 13.2791 2.57065C13.3046 2.56599 13.3485 2.55998 13.4151 2.55534C13.4809 2.55077 13.562 2.548 13.66 2.548V0.547999ZM12.0217 1.08618C11.7539 1.42695 11.676 1.8215 11.676 2.16H13.676C13.676 2.11449 13.6861 2.20505 13.5943 2.32182L12.0217 1.08618ZM11.676 2.16V8.412H13.676V2.16H11.676ZM11.676 8.412C11.676 8.75402 11.7397 9.26187 12.1249 9.64711L13.5391 8.23289C13.6309 8.32467 13.6643 8.41361 13.674 8.44665C13.6828 8.47648 13.676 8.47136 13.676 8.412H11.676ZM12.1879 9.70491C12.6302 10.0774 13.2261 10.132 13.66 10.132V8.132C13.5076 8.132 13.4195 8.11926 13.3789 8.10985C13.3604 8.10555 13.3624 8.10435 13.3786 8.1116C13.395 8.11897 13.4317 8.13763 13.4761 8.17509L12.1879 9.70491ZM12.66 9.132V9.516H14.66V9.132H12.66ZM27.5291 9.516V10.516H28.5291V9.516H27.5291ZM24.6971 9.516H23.6971V10.516H24.6971V9.516ZM24.6971 9.132V8.132H23.6971V9.132H24.6971ZM25.5131 8.976L26.0778 9.80131L26.0838 9.79718L26.0898 9.79297L25.5131 8.976ZM25.5131 1.692L26.1488 0.920069L26.1186 0.895201L26.0866 0.872768L25.5131 1.692ZM24.6971 1.524H23.6971V2.524H24.6971V1.524ZM24.6971 1.152V0.151999H23.6971V1.152H24.6971ZM27.5291 1.152H28.5291V0.151999H27.5291V1.152ZM27.5291 1.524V2.524H28.5291V1.524H27.5291ZM27.1451 1.56L27.2971 2.54837L27.326 2.54393L27.3546 2.5378L27.1451 1.56ZM26.8691 1.62L26.5817 0.662174L26.5523 0.671017L26.5234 0.681656L26.8691 1.62ZM26.5691 1.86L27.4635 2.30721L27.4705 2.29324L27.4771 2.27906L26.5691 1.86ZM26.6771 8.976L26.1224 9.80811L26.1321 9.81444L26.6771 8.976ZM27.5291 9.132H28.5291V8.132H27.5291V9.132ZM27.5291 8.516H24.6971V10.516H27.5291V8.516ZM25.6971 9.516V9.132H23.6971V9.516H25.6971ZM24.6971 10.132C25.108 10.132 25.6547 10.0908 26.0778 9.80131L24.9484 8.15069C24.9919 8.12094 25.0235 8.10861 25.0313 8.10576C25.0394 8.10276 25.0332 8.10584 25.0073 8.11079C24.9528 8.12121 24.8538 8.132 24.6971 8.132V10.132ZM26.0898 9.79297C26.5777 9.44852 26.7171 8.9222 26.7171 8.496H24.7171C24.7171 8.51072 24.7144 8.46668 24.7458 8.39286C24.7811 8.30968 24.8456 8.22314 24.9364 8.15903L26.0898 9.79297ZM26.7171 8.496V2.244H24.7171V8.496H26.7171ZM26.7171 2.244C26.7171 1.829 26.6052 1.29591 26.1488 0.920069L24.8774 2.46393C24.7937 2.39503 24.7483 2.31537 24.7281 2.26065C24.7107 2.2136 24.7171 2.20013 24.7171 2.244H26.7171ZM26.0866 0.872768C25.6605 0.574525 25.1203 0.524 24.6971 0.524V2.524C24.845 2.524 24.9375 2.53518 24.9874 2.54546C25.042 2.5567 25.008 2.55908 24.9396 2.51123L26.0866 0.872768ZM25.6971 1.524V1.152H23.6971V1.524H25.6971ZM24.6971 2.152H27.5291V0.151999H24.6971V2.152ZM26.5291 1.152V1.524H28.5291V1.152H26.5291ZM27.5291 0.524C27.3318 0.524 27.1314 0.540243 26.9356 0.582198L27.3546 2.5378C27.3828 2.53176 27.4384 2.524 27.5291 2.524V0.524ZM26.993 0.571628C26.8545 0.592949 26.7157 0.62198 26.5817 0.662174L27.1564 2.57783C27.1825 2.57002 27.2277 2.55905 27.2971 2.54837L26.993 0.571628ZM26.5234 0.681656C26.2267 0.790945 25.8595 1.0112 25.6611 1.44094L27.4771 2.27906C27.4287 2.38392 27.3616 2.45746 27.3048 2.50287C27.2778 2.52443 27.255 2.53831 27.2398 2.54652C27.2246 2.55469 27.2155 2.55807 27.2148 2.55834L26.5234 0.681656ZM25.6747 1.41279C25.5316 1.69897 25.4971 1.99867 25.4971 2.244H27.4971C27.4971 2.21241 27.4996 2.20362 27.498 2.21229C27.4964 2.22089 27.4888 2.25663 27.4635 2.30721L25.6747 1.41279ZM25.4971 2.244V8.496H27.4971V2.244H25.4971ZM25.4971 8.496C25.4971 8.84556 25.5784 9.44542 26.1224 9.80805L27.2318 8.14395C27.3767 8.24058 27.4488 8.36581 27.4784 8.44488C27.5038 8.51259 27.4971 8.54088 27.4971 8.496H25.4971ZM26.1321 9.81444C26.5564 10.0902 27.1032 10.132 27.5291 10.132V8.132C27.3629 8.132 27.2541 8.12105 27.1902 8.10935C27.1596 8.10374 27.1484 8.09959 27.1518 8.10079C27.1548 8.10182 27.182 8.11151 27.2221 8.13756L26.1321 9.81444ZM26.5291 9.132V9.516H28.5291V9.132H26.5291ZM46.3927 9.516V10.516H47.3927V9.516H46.3927ZM43.4047 9.516H42.4047V10.516H43.4047V9.516ZM43.4047 9.108V8.108H42.4047V9.108H43.4047ZM44.1847 9.036L43.91 8.07439L43.8974 8.07817L44.1847 9.036ZM44.4967 8.82L43.7896 8.1129L43.6497 8.25278L43.5736 8.43538L44.4967 8.82ZM44.4847 8.628L43.536 8.94423L43.5453 8.97211L43.5562 8.99939L44.4847 8.628ZM44.4367 8.484L45.3854 8.16778L45.3629 8.10035L45.3311 8.03679L44.4367 8.484ZM44.3407 8.292L43.392 8.60823L43.4145 8.67565L43.4463 8.73921L44.3407 8.292ZM44.2567 8.076L43.308 8.39223L43.3233 8.43802L43.3429 8.48213L44.2567 8.076ZM43.9807 7.296L43.0444 7.64712L43.0444 7.64712L43.9807 7.296ZM43.7047 6.528L44.6504 6.20292L44.4184 5.528H43.7047V6.528ZM40.4167 6.528V5.528H39.696L39.468 6.21177L40.4167 6.528ZM40.1167 7.392L39.1762 7.05236L39.172 7.06401L39.168 7.07577L40.1167 7.392ZM39.8287 8.268L40.7231 8.71521L40.7568 8.64799L40.7799 8.5765L39.8287 8.268ZM39.7447 8.496L38.7685 8.27907L38.7583 8.32514L38.7524 8.37197L39.7447 8.496ZM39.7927 8.88L40.6965 8.45191L40.6223 8.29537L40.4998 8.17289L39.7927 8.88ZM40.7767 9.108H41.7767V8.108H40.7767V9.108ZM40.7767 9.516V10.516H41.7767V9.516H40.7767ZM38.1967 9.516H37.1967V10.516H38.1967V9.516ZM38.1967 9.108V8.108H37.1967V9.108H38.1967ZM38.7007 9.024L38.3679 8.08101L38.3334 8.09318L38.2999 8.10784L38.7007 9.024ZM39.0727 8.748L39.8446 9.38371L39.8535 9.37295L39.8621 9.36194L39.0727 8.748ZM39.2287 8.472L40.1479 8.86592L40.1479 8.86592L39.2287 8.472ZM39.3847 8.1L40.3094 8.48075L40.3192 8.45702L40.3277 8.43282L39.3847 8.1ZM39.6367 7.368L38.6969 7.02626L38.6935 7.03576L38.6902 7.04533L39.6367 7.368ZM40.0687 6.144L41.0141 6.46999L41.0141 6.46999L40.0687 6.144ZM41.1007 3.216L40.1553 2.89001L40.1553 2.89001L41.1007 3.216ZM41.5207 1.992L40.5809 1.65026L40.5775 1.65976L40.5742 1.66933L41.5207 1.992ZM41.7847 1.26L41.3106 0.379528L40.9704 0.562749L40.8417 0.927179L41.7847 1.26ZM42.0967 1.104L42.5158 2.01196L42.5437 1.99906L42.5708 1.98447L42.0967 1.104ZM42.4087 0.935999L43.3421 0.57702L42.9344 -0.482834L41.9346 0.0555294L42.4087 0.935999ZM43.8247 4.644L42.8896 4.99847L42.8904 5.00051L43.8247 4.644ZM45.2407 8.34L46.1748 7.98286L46.1741 7.98102L45.2407 8.34ZM45.6127 8.928L44.9725 9.69622L45.0012 9.72008L45.0315 9.74173L45.6127 8.928ZM46.3927 9.108H47.3927V8.108H46.3927V9.108ZM43.5487 6.048V7.048H44.9937L44.4846 5.69567L43.5487 6.048ZM42.7687 4.008L41.8328 4.36035L41.8365 4.36992L42.7687 4.008ZM42.0007 1.968L42.9366 1.61567L41.9704 -0.950755L41.0577 1.63518L42.0007 1.968ZM41.2807 4.008L40.3377 3.67516L40.3343 3.6851L41.2807 4.008ZM40.5727 6.048L39.6297 5.71518L39.1593 7.048H40.5727V6.048ZM46.3927 8.516H43.4047V10.516H46.3927V8.516ZM44.4047 9.516V9.108H42.4047V9.516H44.4047ZM43.4047 10.108C43.7765 10.108 44.1623 10.0868 44.4721 9.99383L43.8974 8.07817C43.9062 8.07553 43.8741 8.08534 43.7778 8.09423C43.6873 8.10258 43.5646 8.108 43.4047 8.108V10.108ZM44.4594 9.99752C44.7257 9.92146 45.2024 9.72634 45.4198 9.20462L43.5736 8.43538C43.6418 8.27176 43.7484 8.17306 43.8195 8.12381C43.8844 8.07888 43.926 8.06991 43.91 8.07448L44.4594 9.99752ZM45.2038 9.5271C45.4493 9.28159 45.4875 8.98823 45.4921 8.9604C45.5071 8.87071 45.5087 8.79283 45.5087 8.748H43.5087C43.5087 8.74317 43.5084 8.69729 43.5193 8.6316C43.5249 8.59829 43.5372 8.53579 43.5656 8.45988C43.591 8.39213 43.6525 8.24997 43.7896 8.1129L45.2038 9.5271ZM45.5087 8.748C45.5087 8.57126 45.4728 8.40556 45.4132 8.25661L43.5562 8.99939C43.5287 8.93044 43.5087 8.84474 43.5087 8.748H45.5087ZM45.4334 8.31177C45.4174 8.26377 45.4014 8.21577 45.3854 8.16778L43.488 8.80022C43.504 8.84823 43.52 8.89623 43.536 8.94423L45.4334 8.31177ZM45.3311 8.03679C45.3311 8.03666 45.331 8.03654 45.331 8.03641C45.3309 8.03629 45.3308 8.03616 45.3308 8.03604C45.3307 8.03591 45.3306 8.03579 45.3306 8.03566C45.3305 8.03554 45.3305 8.03541 45.3304 8.03529C45.3303 8.03516 45.3303 8.03504 45.3302 8.03491C45.3301 8.03479 45.3301 8.03466 45.33 8.03454C45.33 8.03441 45.3299 8.03429 45.3298 8.03416C45.3298 8.03404 45.3297 8.03391 45.3296 8.03379C45.3296 8.03366 45.3295 8.03354 45.3295 8.03341C45.3294 8.03329 45.3293 8.03316 45.3293 8.03304C45.3292 8.03291 45.3291 8.03279 45.3291 8.03266C45.329 8.03254 45.329 8.03241 45.3289 8.03229C45.3288 8.03216 45.3288 8.03204 45.3287 8.03191C45.3286 8.03179 45.3286 8.03166 45.3285 8.03154C45.3285 8.03141 45.3284 8.03129 45.3283 8.03116C45.3283 8.03104 45.3282 8.03091 45.3281 8.03079C45.3281 8.03066 45.328 8.03054 45.328 8.03041C45.3279 8.03029 45.3278 8.03016 45.3278 8.03004C45.3277 8.02991 45.3276 8.02979 45.3276 8.02966C45.3275 8.02954 45.3275 8.02941 45.3274 8.02929C45.3273 8.02916 45.3273 8.02904 45.3272 8.02891C45.3271 8.02879 45.3271 8.02866 45.327 8.02854C45.327 8.02841 45.3269 8.02829 45.3268 8.02816C45.3268 8.02804 45.3267 8.02791 45.3266 8.02779C45.3266 8.02766 45.3265 8.02754 45.3265 8.02741C45.3264 8.02729 45.3263 8.02716 45.3263 8.02704C45.3262 8.02691 45.3261 8.02679 45.3261 8.02666C45.326 8.02654 45.326 8.02641 45.3259 8.02629C45.3258 8.02616 45.3258 8.02604 45.3257 8.02591C45.3256 8.02579 45.3256 8.02566 45.3255 8.02554C45.3255 8.02541 45.3254 8.02529 45.3253 8.02516C45.3253 8.02504 45.3252 8.02491 45.3251 8.02479C45.3251 8.02466 45.325 8.02454 45.325 8.02441C45.3249 8.02429 45.3248 8.02416 45.3248 8.02404C45.3247 8.02391 45.3246 8.02379 45.3246 8.02366C45.3245 8.02354 45.3245 8.02341 45.3244 8.02329C45.3243 8.02316 45.3243 8.02304 45.3242 8.02291C45.3241 8.02279 45.3241 8.02266 45.324 8.02254C45.324 8.02241 45.3239 8.02229 45.3238 8.02216C45.3238 8.02204 45.3237 8.02191 45.3236 8.02179C45.3236 8.02166 45.3235 8.02154 45.3235 8.02141C45.3234 8.02129 45.3233 8.02116 45.3233 8.02104C45.3232 8.02091 45.3231 8.02079 45.3231 8.02066C45.323 8.02054 45.323 8.02041 45.3229 8.02029C45.3228 8.02016 45.3228 8.02004 45.3227 8.01991C45.3226 8.01979 45.3226 8.01966 45.3225 8.01954C45.3225 8.01941 45.3224 8.01929 45.3223 8.01916C45.3223 8.01904 45.3222 8.01891 45.3221 8.01879C45.3221 8.01866 45.322 8.01854 45.322 8.01841C45.3219 8.01829 45.3218 8.01816 45.3218 8.01804C45.3217 8.01791 45.3216 8.01779 45.3216 8.01766C45.3215 8.01754 45.3215 8.01741 45.3214 8.01729C45.3213 8.01716 45.3213 8.01704 45.3212 8.01691C45.3211 8.01679 45.3211 8.01666 45.321 8.01654C45.321 8.01641 45.3209 8.01629 45.3208 8.01616C45.3208 8.01604 45.3207 8.01591 45.3206 8.01579C45.3206 8.01566 45.3205 8.01554 45.3205 8.01541C45.3204 8.01529 45.3203 8.01516 45.3203 8.01504C45.3202 8.01491 45.3201 8.01479 45.3201 8.01466C45.32 8.01454 45.32 8.01441 45.3199 8.01429C45.3198 8.01416 45.3198 8.01404 45.3197 8.01391C45.3196 8.01379 45.3196 8.01366 45.3195 8.01354C45.3195 8.01341 45.3194 8.01329 45.3193 8.01316C45.3193 8.01304 45.3192 8.01291 45.3191 8.01279C45.3191 8.01266 45.319 8.01254 45.319 8.01241C45.3189 8.01229 45.3188 8.01216 45.3188 8.01204C45.3187 8.01191 45.3186 8.01179 45.3186 8.01166C45.3185 8.01154 45.3185 8.01141 45.3184 8.01129C45.3183 8.01116 45.3183 8.01104 45.3182 8.01091C45.3181 8.01079 45.3181 8.01066 45.318 8.01054C45.318 8.01041 45.3179 8.01029 45.3178 8.01016C45.3178 8.01004 45.3177 8.00991 45.3176 8.00979C45.3176 8.00966 45.3175 8.00954 45.3175 8.00941C45.3174 8.00929 45.3173 8.00916 45.3173 8.00904C45.3172 8.00891 45.3171 8.00879 45.3171 8.00866C45.317 8.00854 45.317 8.00841 45.3169 8.00829C45.3168 8.00816 45.3168 8.00804 45.3167 8.00791C45.3166 8.00779 45.3166 8.00766 45.3165 8.00754C45.3165 8.00741 45.3164 8.00729 45.3163 8.00716C45.3163 8.00704 45.3162 8.00691 45.3161 8.00679C45.3161 8.00666 45.316 8.00654 45.316 8.00641C45.3159 8.00629 45.3158 8.00616 45.3158 8.00604C45.3157 8.00591 45.3156 8.00579 45.3156 8.00566C45.3155 8.00554 45.3155 8.00541 45.3154 8.00529C45.3153 8.00516 45.3153 8.00504 45.3152 8.00491C45.3151 8.00479 45.3151 8.00466 45.315 8.00454C45.315 8.00441 45.3149 8.00429 45.3148 8.00416C45.3148 8.00404 45.3147 8.00391 45.3146 8.00379C45.3146 8.00366 45.3145 8.00354 45.3145 8.00341C45.3144 8.00329 45.3143 8.00316 45.3143 8.00304C45.3142 8.00291 45.3141 8.00279 45.3141 8.00266C45.314 8.00254 45.314 8.00241 45.3139 8.00229C45.3138 8.00216 45.3138 8.00204 45.3137 8.00191C45.3136 8.00179 45.3136 8.00166 45.3135 8.00154C45.3135 8.00141 45.3134 8.00129 45.3133 8.00116C45.3133 8.00104 45.3132 8.00091 45.3131 8.00079C45.3131 8.00066 45.313 8.00054 45.313 8.00041C45.3129 8.00029 45.3128 8.00016 45.3128 8.00004C45.3127 7.99991 45.3126 7.99979 45.3126 7.99966C45.3125 7.99954 45.3125 7.99941 45.3124 7.99929C45.3123 7.99916 45.3123 7.99904 45.3122 7.99891C45.3121 7.99879 45.3121 7.99866 45.312 7.99854C45.312 7.99841 45.3119 7.99829 45.3118 7.99816C45.3118 7.99804 45.3117 7.99791 45.3116 7.99779C45.3116 7.99766 45.3115 7.99754 45.3115 7.99741C45.3114 7.99729 45.3113 7.99716 45.3113 7.99704C45.3112 7.99691 45.3111 7.99679 45.3111 7.99666C45.311 7.99654 45.311 7.99641 45.3109 7.99629C45.3108 7.99616 45.3108 7.99604 45.3107 7.99591C45.3106 7.99579 45.3106 7.99566 45.3105 7.99554C45.3105 7.99541 45.3104 7.99529 45.3103 7.99516C45.3103 7.99504 45.3102 7.99491 45.3101 7.99479C45.3101 7.99466 45.31 7.99454 45.31 7.99441C45.3099 7.99429 45.3098 7.99416 45.3098 7.99404C45.3097 7.99391 45.3096 7.99379 45.3096 7.99366C45.3095 7.99354 45.3095 7.99341 45.3094 7.99329C45.3093 7.99316 45.3093 7.99304 45.3092 7.99291C45.3091 7.99279 45.3091 7.99266 45.309 7.99254C45.309 7.99241 45.3089 7.99229 45.3088 7.99216C45.3088 7.99204 45.3087 7.99191 45.3086 7.99179C45.3086 7.99166 45.3085 7.99154 45.3085 7.99141C45.3084 7.99129 45.3083 7.99116 45.3083 7.99104C45.3082 7.99091 45.3081 7.99079 45.3081 7.99066C45.308 7.99054 45.308 7.99041 45.3079 7.99029C45.3078 7.99016 45.3078 7.99004 45.3077 7.98991C45.3076 7.98979 45.3076 7.98966 45.3075 7.98954C45.3075 7.98941 45.3074 7.98929 45.3073 7.98916C45.3073 7.98904 45.3072 7.98891 45.3071 7.98879C45.3071 7.98866 45.307 7.98854 45.307 7.98841C45.3069 7.98829 45.3068 7.98816 45.3068 7.98804C45.3067 7.98791 45.3066 7.98779 45.3066 7.98766C45.3065 7.98754 45.3065 7.98741 45.3064 7.98729C45.3063 7.98716 45.3063 7.98704 45.3062 7.98691C45.3061 7.98679 45.3061 7.98666 45.306 7.98654C45.306 7.98641 45.3059 7.98629 45.3058 7.98616C45.3058 7.98604 45.3057 7.98591 45.3056 7.98579C45.3056 7.98566 45.3055 7.98554 45.3055 7.98541C45.3054 7.98529 45.3053 7.98516 45.3053 7.98504C45.3052 7.98491 45.3051 7.98479 45.3051 7.98466C45.305 7.98454 45.305 7.98441 45.3049 7.98429C45.3048 7.98416 45.3048 7.98404 45.3047 7.98391C45.3046 7.98379 45.3046 7.98366 45.3045 7.98354C45.3045 7.98341 45.3044 7.98329 45.3043 7.98316C45.3043 7.98304 45.3042 7.98291 45.3041 7.98279C45.3041 7.98266 45.304 7.98254 45.304 7.98241C45.3039 7.98229 45.3038 7.98216 45.3038 7.98204C45.3037 7.98191 45.3036 7.98179 45.3036 7.98166C45.3035 7.98154 45.3035 7.98141 45.3034 7.98129C45.3033 7.98116 45.3033 7.98104 45.3032 7.98091C45.3031 7.98079 45.3031 7.98066 45.303 7.98054C45.303 7.98041 45.3029 7.98029 45.3028 7.98016C45.3028 7.98004 45.3027 7.97991 45.3026 7.97979C45.3026 7.97966 45.3025 7.97954 45.3025 7.97941C45.3024 7.97929 45.3023 7.97916 45.3023 7.97904C45.3022 7.97891 45.3021 7.97879 45.3021 7.97866C45.302 7.97854 45.302 7.97841 45.3019 7.97829C45.3018 7.97816 45.3018 7.97804 45.3017 7.97791C45.3016 7.97779 45.3016 7.97766 45.3015 7.97754C45.3015 7.97741 45.3014 7.97729 45.3013 7.97716C45.3013 7.97704 45.3012 7.97691 45.3011 7.97679C45.3011 7.97666 45.301 7.97654 45.301 7.97641C45.3009 7.97629 45.3008 7.97616 45.3008 7.97604C45.3007 7.97591 45.3006 7.97579 45.3006 7.97566C45.3005 7.97554 45.3005 7.97541 45.3004 7.97529C45.3003 7.97516 45.3003 7.97504 45.3002 7.97491C45.3001 7.97479 45.3001 7.97466 45.3 7.97454C45.3 7.97441 45.2999 7.97429 45.2998 7.97416C45.2998 7.97404 45.2997 7.97391 45.2996 7.97379C45.2996 7.97366 45.2995 7.97354 45.2995 7.97341C45.2994 7.97329 45.2993 7.97316 45.2993 7.97304C45.2992 7.97291 45.2991 7.97279 45.2991 7.97266C45.299 7.97254 45.299 7.97241 45.2989 7.97229C45.2988 7.97216 45.2988 7.97204 45.2987 7.97191C45.2986 7.97179 45.2986 7.97166 45.2985 7.97154C45.2985 7.97141 45.2984 7.97129 45.2983 7.97116C45.2983 7.97104 45.2982 7.97091 45.2981 7.97079C45.2981 7.97066 45.298 7.97054 45.298 7.97041C45.2979 7.97029 45.2978 7.97016 45.2978 7.97004C45.2977 7.96991 45.2976 7.96979 45.2976 7.96966C45.2975 7.96954 45.2975 7.96941 45.2974 7.96929C45.2973 7.96916 45.2973 7.96904 45.2972 7.96891C45.2971 7.96879 45.2971 7.96866 45.297 7.96854C45.297 7.96841 45.2969 7.96829 45.2968 7.96816C45.2968 7.96804 45.2967 7.96791 45.2966 7.96779C45.2966 7.96766 45.2965 7.96754 45.2965 7.96741C45.2964 7.96729 45.2963 7.96716 45.2963 7.96704C45.2962 7.96691 45.2961 7.96679 45.2961 7.96666C45.296 7.96654 45.296 7.96641 45.2959 7.96629C45.2958 7.96616 45.2958 7.96604 45.2957 7.96591C45.2956 7.96579 45.2956 7.96566 45.2955 7.96554C45.2955 7.96541 45.2954 7.96529 45.2953 7.96516C45.2953 7.96504 45.2952 7.96491 45.2951 7.96479C45.2951 7.96466 45.295 7.96454 45.295 7.96441C45.2949 7.96429 45.2948 7.96416 45.2948 7.96404C45.2947 7.96391 45.2946 7.96379 45.2946 7.96366C45.2945 7.96354 45.2945 7.96341 45.2944 7.96329C45.2943 7.96316 45.2943 7.96304 45.2942 7.96291C45.2941 7.96279 45.2941 7.96266 45.294 7.96254C45.294 7.96241 45.2939 7.96229 45.2938 7.96216C45.2938 7.96204 45.2937 7.96191 45.2936 7.96179C45.2936 7.96166 45.2935 7.96154 45.2935 7.96141C45.2934 7.96129 45.2933 7.96116 45.2933 7.96104C45.2932 7.96091 45.2931 7.96079 45.2931 7.96066C45.293 7.96054 45.293 7.96041 45.2929 7.96029C45.2928 7.96016 45.2928 7.96004 45.2927 7.95991C45.2926 7.95979 45.2926 7.95966 45.2925 7.95954C45.2925 7.95941 45.2924 7.95929 45.2923 7.95916C45.2923 7.95904 45.2922 7.95891 45.2921 7.95879C45.2921 7.95866 45.292 7.95854 45.292 7.95841C45.2919 7.95829 45.2918 7.95816 45.2918 7.95804C45.2917 7.95791 45.2916 7.95779 45.2916 7.95766C45.2915 7.95754 45.2915 7.95741 45.2914 7.95729C45.2913 7.95716 45.2913 7.95704 45.2912 7.95691C45.2911 7.95679 45.2911 7.95666 45.291 7.95654C45.291 7.95641 45.2909 7.95629 45.2908 7.95616C45.2908 7.95604 45.2907 7.95591 45.2906 7.95579C45.2906 7.95566 45.2905 7.95554 45.2905 7.95541C45.2904 7.95529 45.2903 7.95516 45.2903 7.95504C45.2902 7.95491 45.2901 7.95479 45.2901 7.95466C45.29 7.95454 45.29 7.95441 45.2899 7.95429C45.2898 7.95416 45.2898 7.95404 45.2897 7.95391C45.2896 7.95379 45.2896 7.95366 45.2895 7.95354C45.2895 7.95341 45.2894 7.95329 45.2893 7.95316C45.2893 7.95304 45.2892 7.95291 45.2891 7.95279C45.2891 7.95266 45.289 7.95254 45.289 7.95241C45.2889 7.95229 45.2888 7.95216 45.2888 7.95204C45.2887 7.95191 45.2886 7.95179 45.2886 7.95166C45.2885 7.95154 45.2885 7.95141 45.2884 7.95129C45.2883 7.95116 45.2883 7.95104 45.2882 7.95091C45.2881 7.95079 45.2881 7.95066 45.288 7.95054C45.288 7.95041 45.2879 7.95029 45.2878 7.95016C45.2878 7.95004 45.2877 7.94991 45.2876 7.94979C45.2876 7.94966 45.2875 7.94954 45.2875 7.94941C45.2874 7.94929 45.2873 7.94916 45.2873 7.94904C45.2872 7.94891 45.2871 7.94879 45.2871 7.94866C45.287 7.94854 45.287 7.94841 45.2869 7.94829C45.2868 7.94816 45.2868 7.94804 45.2867 7.94791C45.2866 7.94779 45.2866 7.94766 45.2865 7.94754C45.2865 7.94741 45.2864 7.94729 45.2863 7.94716C45.2863 7.94704 45.2862 7.94691 45.2861 7.94679C45.2861 7.94666 45.286 7.94654 45.286 7.94641C45.2859 7.94629 45.2858 7.94616 45.2858 7.94604C45.2857 7.94591 45.2856 7.94579 45.2856 7.94566C45.2855 7.94554 45.2855 7.94541 45.2854 7.94529C45.2853 7.94516 45.2853 7.94504 45.2852 7.94491C45.2851 7.94479 45.2851 7.94466 45.285 7.94454C45.285 7.94441 45.2849 7.94429 45.2848 7.94416C45.2848 7.94404 45.2847 7.94391 45.2846 7.94379C45.2846 7.94366 45.2845 7.94354 45.2845 7.94341C45.2844 7.94329 45.2843 7.94316 45.2843 7.94304C45.2842 7.94291 45.2841 7.94279 45.2841 7.94266C45.284 7.94254 45.284 7.94241 45.2839 7.94229C45.2838 7.94216 45.2838 7.94204 45.2837 7.94191C45.2836 7.94179 45.2836 7.94166 45.2835 7.94154C45.2835 7.94141 45.2834 7.94129 45.2833 7.94116C45.2833 7.94104 45.2832 7.94091 45.2831 7.94079C45.2831 7.94066 45.283 7.94054 45.283 7.94041C45.2829 7.94029 45.2828 7.94016 45.2828 7.94004C45.2827 7.93991 45.2826 7.93979 45.2826 7.93966C45.2825 7.93954 45.2825 7.93941 45.2824 7.93929C45.2823 7.93916 45.2823 7.93904 45.2822 7.93891C45.2821 7.93879 45.2821 7.93866 45.282 7.93854C45.282 7.93841 45.2819 7.93829 45.2818 7.93816C45.2818 7.93804 45.2817 7.93791 45.2816 7.93779C45.2816 7.93766 45.2815 7.93754 45.2815 7.93741C45.2814 7.93729 45.2813 7.93716 45.2813 7.93704C45.2812 7.93691 45.2811 7.93679 45.2811 7.93666C45.281 7.93654 45.281 7.93641 45.2809 7.93629C45.2808 7.93616 45.2808 7.93604 45.2807 7.93591C45.2806 7.93579 45.2806 7.93566 45.2805 7.93554C45.2805 7.93541 45.2804 7.93529 45.2803 7.93516C45.2803 7.93504 45.2802 7.93491 45.2801 7.93479C45.2801 7.93466 45.28 7.93454 45.28 7.93441C45.2799 7.93429 45.2798 7.93416 45.2798 7.93404C45.2797 7.93391 45.2796 7.93379 45.2796 7.93366C45.2795 7.93354 45.2795 7.93341 45.2794 7.93329C45.2793 7.93316 45.2793 7.93304 45.2792 7.93291C45.2791 7.93279 45.2791 7.93266 45.279 7.93254C45.279 7.93241 45.2789 7.93229 45.2788 7.93216C45.2788 7.93204 45.2787 7.93191 45.2786 7.93179C45.2786 7.93166 45.2785 7.93154 45.2785 7.93141C45.2784 7.93129 45.2783 7.93116 45.2783 7.93104C45.2782 7.93091 45.2781 7.93079 45.2781 7.93066C45.278 7.93054 45.278 7.93041 45.2779 7.93029C45.2778 7.93016 45.2778 7.93004 45.2777 7.92991C45.2776 7.92979 45.2776 7.92966 45.2775 7.92954C45.2775 7.92941 45.2774 7.92929 45.2773 7.92916C45.2773 7.92904 45.2772 7.92891 45.2771 7.92879C45.2771 7.92866 45.277 7.92854 45.277 7.92841C45.2769 7.92829 45.2768 7.92816 45.2768 7.92804C45.2767 7.92791 45.2766 7.92779 45.2766 7.92766C45.2765 7.92754 45.2765 7.92741 45.2764 7.92729C45.2763 7.92716 45.2763 7.92704 45.2762 7.92691C45.2761 7.92679 45.2761 7.92666 45.276 7.92654C45.276 7.92641 45.2759 7.92629 45.2758 7.92616C45.2758 7.92604 45.2757 7.92591 45.2756 7.92579C45.2756 7.92566 45.2755 7.92554 45.2755 7.92541C45.2754 7.92529 45.2753 7.92516 45.2753 7.92504C45.2752 7.92491 45.2751 7.92479 45.2751 7.92466C45.275 7.92454 45.275 7.92441 45.2749 7.92429C45.2748 7.92416 45.2748 7.92404 45.2747 7.92391C45.2746 7.92379 45.2746 7.92366 45.2745 7.92354C45.2745 7.92341 45.2744 7.92329 45.2743 7.92316C45.2743 7.92304 45.2742 7.92291 45.2741 7.92279C45.2741 7.92266 45.274 7.92254 45.274 7.92241C45.2739 7.92229 45.2738 7.92216 45.2738 7.92204C45.2737 7.92191 45.2736 7.92179 45.2736 7.92166C45.2735 7.92154 45.2735 7.92141 45.2734 7.92129C45.2733 7.92116 45.2733 7.92104 45.2732 7.92091C45.2731 7.92079 45.2731 7.92066 45.273 7.92054C45.273 7.92041 45.2729 7.92029 45.2728 7.92016C45.2728 7.92004 45.2727 7.91991 45.2726 7.91979C45.2726 7.91966 45.2725 7.91954 45.2725 7.91941C45.2724 7.91929 45.2723 7.91916 45.2723 7.91904C45.2722 7.91891 45.2721 7.91879 45.2721 7.91866C45.272 7.91854 45.272 7.91841 45.2719 7.91829C45.2718 7.91816 45.2718 7.91804 45.2717 7.91791C45.2716 7.91779 45.2716 7.91766 45.2715 7.91754C45.2715 7.91741 45.2714 7.91729 45.2713 7.91716C45.2713 7.91704 45.2712 7.91691 45.2711 7.91679C45.2711 7.91666 45.271 7.91654 45.271 7.91641C45.2709 7.91629 45.2708 7.91616 45.2708 7.91604C45.2707 7.91591 45.2706 7.91579 45.2706 7.91566C45.2705 7.91554 45.2705 7.91541 45.2704 7.91529C45.2703 7.91516 45.2703 7.91504 45.2702 7.91491C45.2701 7.91479 45.2701 7.91466 45.27 7.91454C45.27 7.91441 45.2699 7.91429 45.2698 7.91416C45.2698 7.91404 45.2697 7.91391 45.2696 7.91379C45.2696 7.91366 45.2695 7.91354 45.2695 7.91341C45.2694 7.91329 45.2693 7.91316 45.2693 7.91304C45.2692 7.91291 45.2691 7.91279 45.2691 7.91266C45.269 7.91254 45.269 7.91241 45.2689 7.91229C45.2688 7.91216 45.2688 7.91204 45.2687 7.91191C45.2686 7.91179 45.2686 7.91166 45.2685 7.91154C45.2685 7.91141 45.2684 7.91129 45.2683 7.91116C45.2683 7.91104 45.2682 7.91091 45.2681 7.91079C45.2681 7.91066 45.268 7.91054 45.268 7.91041C45.2679 7.91029 45.2678 7.91016 45.2678 7.91004C45.2677 7.90991 45.2676 7.90979 45.2676 7.90966C45.2675 7.90954 45.2675 7.90941 45.2674 7.90929C45.2673 7.90916 45.2673 7.90904 45.2672 7.90891C45.2671 7.90879 45.2671 7.90866 45.267 7.90854C45.267 7.90841 45.2669 7.90829 45.2668 7.90816C45.2668 7.90804 45.2667 7.90791 45.2666 7.90779C45.2666 7.90766 45.2665 7.90754 45.2665 7.90741C45.2664 7.90729 45.2663 7.90716 45.2663 7.90704C45.2662 7.90691 45.2661 7.90679 45.2661 7.90666C45.266 7.90654 45.266 7.90641 45.2659 7.90629C45.2658 7.90616 45.2658 7.90604 45.2657 7.90591C45.2656 7.90579 45.2656 7.90566 45.2655 7.90554C45.2655 7.90541 45.2654 7.90529 45.2653 7.90516C45.2653 7.90504 45.2652 7.90491 45.2651 7.90479C45.2651 7.90466 45.265 7.90454 45.265 7.90441C45.2649 7.90429 45.2648 7.90416 45.2648 7.90404C45.2647 7.90391 45.2646 7.90379 45.2646 7.90366C45.2645 7.90354 45.2645 7.90341 45.2644 7.90329C45.2643 7.90316 45.2643 7.90304 45.2642 7.90291C45.2641 7.90279 45.2641 7.90266 45.264 7.90254C45.264 7.90241 45.2639 7.90229 45.2638 7.90216C45.2638 7.90204 45.2637 7.90191 45.2636 7.90179C45.2636 7.90166 45.2635 7.90154 45.2635 7.90141C45.2634 7.90129 45.2633 7.90116 45.2633 7.90104C45.2632 7.90091 45.2631 7.90079 45.2631 7.90066C45.263 7.90054 45.263 7.90041 45.2629 7.90029C45.2628 7.90016 45.2628 7.90004 45.2627 7.89991C45.2626 7.89979 45.2626 7.89966 45.2625 7.89954C45.2625 7.89941 45.2624 7.89929 45.2623 7.89916C45.2623 7.89904 45.2622 7.89891 45.2621 7.89879C45.2621 7.89866 45.262 7.89854 45.262 7.89841C45.2619 7.89829 45.2618 7.89816 45.2618 7.89804C45.2617 7.89791 45.2616 7.89779 45.2616 7.89766C45.2615 7.89754 45.2615 7.89741 45.2614 7.89729C45.2613 7.89716 45.2613 7.89704 45.2612 7.89691C45.2611 7.89679 45.2611 7.89666 45.261 7.89654C45.261 7.89641 45.2609 7.89629 45.2608 7.89616C45.2608 7.89604 45.2607 7.89591 45.2606 7.89579C45.2606 7.89566 45.2605 7.89554 45.2605 7.89541C45.2604 7.89529 45.2603 7.89516 45.2603 7.89504C45.2602 7.89491 45.2601 7.89479 45.2601 7.89466C45.26 7.89454 45.26 7.89441 45.2599 7.89429C45.2598 7.89416 45.2598 7.89404 45.2597 7.89391C45.2596 7.89379 45.2596 7.89366 45.2595 7.89354C45.2595 7.89341 45.2594 7.89329 45.2593 7.89316C45.2593 7.89304 45.2592 7.89291 45.2591 7.89279C45.2591 7.89266 45.259 7.89254 45.259 7.89241C45.2589 7.89229 45.2588 7.89216 45.2588 7.89204C45.2587 7.89191 45.2586 7.89179 45.2586 7.89166C45.2585 7.89154 45.2585 7.89141 45.2584 7.89129C45.2583 7.89116 45.2583 7.89104 45.2582 7.89091C45.2581 7.89079 45.2581 7.89066 45.258 7.89054C45.258 7.89041 45.2579 7.89029 45.2578 7.89016C45.2578 7.89004 45.2577 7.88991 45.2576 7.88979C45.2576 7.88966 45.2575 7.88954 45.2575 7.88941C45.2574 7.88929 45.2573 7.88916 45.2573 7.88904C45.2572 7.88891 45.2571 7.88879 45.2571 7.88866C45.257 7.88854 45.257 7.88841 45.2569 7.88829C45.2568 7.88816 45.2568 7.88804 45.2567 7.88791C45.2566 7.88779 45.2566 7.88766 45.2565 7.88754C45.2565 7.88741 45.2564 7.88729 45.2563 7.88716C45.2563 7.88704 45.2562 7.88691 45.2561 7.88679C45.2561 7.88666 45.256 7.88654 45.256 7.88641C45.2559 7.88629 45.2558 7.88616 45.2558 7.88604C45.2557 7.88591 45.2556 7.88579 45.2556 7.88566C45.2555 7.88554 45.2555 7.88541 45.2554 7.88529C45.2553 7.88516 45.2553 7.88504 45.2552 7.88491C45.2551 7.88479 45.2551 7.88466 45.255 7.88454C45.255 7.88441 45.2549 7.88429 45.2548 7.88416C45.2548 7.88404 45.2547 7.88391 45.2546 7.88379C45.2546 7.88366 45.2545 7.88354 45.2545 7.88341C45.2544 7.88329 45.2543 7.88316 45.2543 7.88304C45.2542 7.88291 45.2541 7.88279 45.2541 7.88266C45.254 7.88254 45.254 7.88241 45.2539 7.88229C45.2538 7.88216 45.2538 7.88204 45.2537 7.88191C45.2536 7.88179 45.2536 7.88166 45.2535 7.88154C45.2535 7.88141 45.2534 7.88129 45.2533 7.88116C45.2533 7.88104 45.2532 7.88091 45.2531 7.88079C45.2531 7.88066 45.253 7.88054 45.253 7.88041C45.2529 7.88029 45.2528 7.88016 45.2528 7.88004C45.2527 7.87991 45.2526 7.87979 45.2526 7.87966C45.2525 7.87954 45.2525 7.87941 45.2524 7.87929C45.2523 7.87916 45.2523 7.87904 45.2522 7.87891C45.2521 7.87879 45.2521 7.87866 45.252 7.87854C45.252 7.87841 45.2519 7.87829 45.2518 7.87816C45.2518 7.87804 45.2517 7.87791 45.2516 7.87779C45.2516 7.87766 45.2515 7.87754 45.2515 7.87741C45.2514 7.87729 45.2513 7.87716 45.2513 7.87704C45.2512 7.87691 45.2511 7.87679 45.2511 7.87666C45.251 7.87654 45.251 7.87641 45.2509 7.87629C45.2508 7.87616 45.2508 7.87604 45.2507 7.87591C45.2506 7.87579 45.2506 7.87566 45.2505 7.87554C45.2505 7.87541 45.2504 7.87529 45.2503 7.87516C45.2503 7.87504 45.2502 7.87491 45.2501 7.87479C45.2501 7.87466 45.25 7.87454 45.25 7.87441C45.2499 7.87429 45.2498 7.87416 45.2498 7.87404C45.2497 7.87391 45.2496 7.87379 45.2496 7.87366C45.2495 7.87354 45.2495 7.87341 45.2494 7.87329C45.2493 7.87316 45.2493 7.87304 45.2492 7.87291C45.2491 7.87279 45.2491 7.87266 45.249 7.87254C45.249 7.87241 45.2489 7.87229 45.2488 7.87216C45.2488 7.87204 45.2487 7.87191 45.2486 7.87179C45.2486 7.87166 45.2485 7.87154 45.2485 7.87141C45.2484 7.87129 45.2483 7.87116 45.2483 7.87104C45.2482 7.87091 45.2481 7.87079 45.2481 7.87066C45.248 7.87054 45.248 7.87041 45.2479 7.87029C45.2478 7.87016 45.2478 7.87004 45.2477 7.86991C45.2476 7.86979 45.2476 7.86966 45.2475 7.86954C45.2475 7.86941 45.2474 7.86929 45.2473 7.86916C45.2473 7.86904 45.2472 7.86891 45.2471 7.86879C45.2471 7.86866 45.247 7.86854 45.247 7.86841C45.2469 7.86829 45.2468 7.86816 45.2468 7.86804C45.2467 7.86791 45.2466 7.86779 45.2466 7.86766C45.2465 7.86754 45.2465 7.86741 45.2464 7.86729C45.2463 7.86716 45.2463 7.86704 45.2462 7.86691C45.2461 7.86679 45.2461 7.86666 45.246 7.86654C45.246 7.86641 45.2459 7.86629 45.2458 7.86616C45.2458 7.86604 45.2457 7.86591 45.2456 7.86579C45.2456 7.86566 45.2455 7.86554 45.2455 7.86541C45.2454 7.86529 45.2453 7.86516 45.2453 7.86504C45.2452 7.86491 45.2451 7.86479 45.2451 7.86466C45.245 7.86454 45.245 7.86441 45.2449 7.86429C45.2448 7.86416 45.2448 7.86404 45.2447 7.86391C45.2446 7.86379 45.2446 7.86366 45.2445 7.86354C45.2445 7.86341 45.2444 7.86329 45.2443 7.86316C45.2443 7.86304 45.2442 7.86291 45.2441 7.86279C45.2441 7.86266 45.244 7.86254 45.244 7.86241C45.2439 7.86229 45.2438 7.86216 45.2438 7.86204C45.2437 7.86191 45.2436 7.86179 45.2436 7.86166C45.2435 7.86154 45.2435 7.86141 45.2434 7.86129C45.2433 7.86116 45.2433 7.86104 45.2432 7.86091C45.2431 7.86079 45.2431 7.86066 45.243 7.86054C45.243 7.86041 45.2429 7.86029 45.2428 7.86016C45.2428 7.86004 45.2427 7.85991 45.2426 7.85979C45.2426 7.85966 45.2425 7.85954 45.2425 7.85941C45.2424 7.85929 45.2423 7.85916 45.2423 7.85904C45.2422 7.85891 45.2421 7.85879 45.2421 7.85866C45.242 7.85854 45.242 7.85841 45.2419 7.85829C45.2418 7.85816 45.2418 7.85804 45.2417 7.85791C45.2416 7.85779 45.2416 7.85766 45.2415 7.85754C45.2415 7.85741 45.2414 7.85729 45.2413 7.85716C45.2413 7.85704 45.2412 7.85691 45.2411 7.85679C45.2411 7.85666 45.241 7.85654 45.241 7.85641C45.2409 7.85629 45.2408 7.85616 45.2408 7.85604C45.2407 7.85591 45.2406 7.85579 45.2406 7.85566C45.2405 7.85554 45.2405 7.85541 45.2404 7.85529C45.2403 7.85516 45.2403 7.85504 45.2402 7.85491C45.2401 7.85479 45.2401 7.85466 45.24 7.85454C45.24 7.85441 45.2399 7.85429 45.2398 7.85416C45.2398 7.85404 45.2397 7.85391 45.2396 7.85379C45.2396 7.85366 45.2395 7.85354 45.2395 7.85341C45.2394 7.85329 45.2393 7.85316 45.2393 7.85304C45.2392 7.85291 45.2391 7.85279 45.2391 7.85266C45.239 7.85254 45.239 7.85241 45.2389 7.85229C45.2388 7.85216 45.2388 7.85204 45.2387 7.85191C45.2386 7.85179 45.2386 7.85166 45.2385 7.85154C45.2385 7.85141 45.2384 7.85129 45.2383 7.85116C45.2383 7.85104 45.2382 7.85091 45.2381 7.85079C45.2381 7.85066 45.238 7.85054 45.238 7.85041C45.2379 7.85029 45.2378 7.85016 45.2378 7.85004C45.2377 7.84991 45.2376 7.84979 45.2376 7.84966C45.2375 7.84954 45.2375 7.84941 45.2374 7.84929C45.2373 7.84916 45.2373 7.84904 45.2372 7.84891C45.2371 7.84879 45.2371 7.84866 45.237 7.84854C45.237 7.84841 45.2369 7.84829 45.2368 7.84816C45.2368 7.84804 45.2367 7.84791 45.2366 7.84779C45.2366 7.84766 45.2365 7.84754 45.2365 7.84741C45.2364 7.84729 45.2363 7.84716 45.2363 7.84704C45.2362 7.84691 45.2361 7.84679 45.2361 7.84666C45.236 7.84654 45.236 7.84641 45.2359 7.84629C45.2358 7.84616 45.2358 7.84604 45.2357 7.84591C45.2356 7.84579 45.2356 7.84566 45.2355 7.84554C45.2355 7.84541 45.2354 7.84529 45.2353 7.84516C45.2353 7.84504 45.2352 7.84491 45.2351 7.84479L43.4463 8.73921C43.4464 8.73934 43.4464 8.73946 43.4465 8.73959C43.4465 8.73971 43.4466 8.73984 43.4467 8.73996C43.4467 8.74009 43.4468 8.74021 43.4469 8.74034C43.4469 8.74046 43.447 8.74059 43.447 8.74071C43.4471 8.74084 43.4472 8.74096 43.4472 8.74109C43.4473 8.74121 43.4474 8.74134 43.4474 8.74146C43.4475 8.74159 43.4475 8.74171 43.4476 8.74184C43.4477 8.74196 43.4477 8.74209 43.4478 8.74221C43.4479 8.74234 43.4479 8.74246 43.448 8.74259C43.448 8.74271 43.4481 8.74284 43.4482 8.74296C43.4482 8.74309 43.4483 8.74321 43.4484 8.74334C43.4484 8.74346 43.4485 8.74359 43.4485 8.74371C43.4486 8.74384 43.4487 8.74396 43.4487 8.74409C43.4488 8.74421 43.4489 8.74434 43.4489 8.74446C43.449 8.74459 43.449 8.74471 43.4491 8.74484C43.4492 8.74496 43.4492 8.74509 43.4493 8.74521C43.4494 8.74534 43.4494 8.74546 43.4495 8.74559C43.4495 8.74571 43.4496 8.74584 43.4497 8.74596C43.4497 8.74609 43.4498 8.74621 43.4499 8.74634C43.4499 8.74646 43.45 8.74659 43.45 8.74671C43.4501 8.74684 43.4502 8.74696 43.4502 8.74709C43.4503 8.74721 43.4504 8.74734 43.4504 8.74746C43.4505 8.74759 43.4505 8.74771 43.4506 8.74784C43.4507 8.74796 43.4507 8.74809 43.4508 8.74821C43.4509 8.74834 43.4509 8.74846 43.451 8.74859C43.451 8.74871 43.4511 8.74884 43.4512 8.74896C43.4512 8.74909 43.4513 8.74921 43.4514 8.74934C43.4514 8.74946 43.4515 8.74959 43.4515 8.74971C43.4516 8.74984 43.4517 8.74996 43.4517 8.75009C43.4518 8.75021 43.4519 8.75034 43.4519 8.75046C43.452 8.75059 43.452 8.75071 43.4521 8.75084C43.4522 8.75096 43.4522 8.75109 43.4523 8.75121C43.4524 8.75134 43.4524 8.75146 43.4525 8.75159C43.4525 8.75171 43.4526 8.75184 43.4527 8.75196C43.4527 8.75209 43.4528 8.75221 43.4529 8.75234C43.4529 8.75246 43.453 8.75259 43.453 8.75271C43.4531 8.75284 43.4532 8.75296 43.4532 8.75309C43.4533 8.75321 43.4534 8.75334 43.4534 8.75346C43.4535 8.75359 43.4535 8.75371 43.4536 8.75384C43.4537 8.75396 43.4537 8.75409 43.4538 8.75421C43.4539 8.75434 43.4539 8.75446 43.454 8.75459C43.454 8.75471 43.4541 8.75484 43.4542 8.75496C43.4542 8.75509 43.4543 8.75521 43.4544 8.75534C43.4544 8.75546 43.4545 8.75559 43.4545 8.75571C43.4546 8.75584 43.4547 8.75596 43.4547 8.75609C43.4548 8.75621 43.4549 8.75634 43.4549 8.75646C43.455 8.75659 43.455 8.75671 43.4551 8.75684C43.4552 8.75696 43.4552 8.75709 43.4553 8.75721C43.4554 8.75734 43.4554 8.75746 43.4555 8.75759C43.4555 8.75771 43.4556 8.75784 43.4557 8.75796C43.4557 8.75809 43.4558 8.75821 43.4559 8.75834C43.4559 8.75846 43.456 8.75859 43.456 8.75871C43.4561 8.75884 43.4562 8.75896 43.4562 8.75909C43.4563 8.75921 43.4564 8.75934 43.4564 8.75946C43.4565 8.75959 43.4565 8.75971 43.4566 8.75984C43.4567 8.75996 43.4567 8.76009 43.4568 8.76021C43.4569 8.76034 43.4569 8.76046 43.457 8.76059C43.457 8.76071 43.4571 8.76084 43.4572 8.76096C43.4572 8.76109 43.4573 8.76121 43.4574 8.76134C43.4574 8.76146 43.4575 8.76159 43.4575 8.76171C43.4576 8.76184 43.4577 8.76196 43.4577 8.76209C43.4578 8.76221 43.4579 8.76234 43.4579 8.76246C43.458 8.76259 43.458 8.76271 43.4581 8.76284C43.4582 8.76296 43.4582 8.76309 43.4583 8.76321C43.4584 8.76334 43.4584 8.76346 43.4585 8.76359C43.4585 8.76371 43.4586 8.76384 43.4587 8.76396C43.4587 8.76409 43.4588 8.76421 43.4589 8.76434C43.4589 8.76446 43.459 8.76459 43.459 8.76471C43.4591 8.76484 43.4592 8.76496 43.4592 8.76509C43.4593 8.76521 43.4594 8.76534 43.4594 8.76546C43.4595 8.76559 43.4595 8.76571 43.4596 8.76584C43.4597 8.76596 43.4597 8.76609 43.4598 8.76621C43.4599 8.76634 43.4599 8.76646 43.46 8.76659C43.46 8.76671 43.4601 8.76684 43.4602 8.76696C43.4602 8.76709 43.4603 8.76721 43.4604 8.76734C43.4604 8.76746 43.4605 8.76759 43.4605 8.76771C43.4606 8.76784 43.4607 8.76796 43.4607 8.76809C43.4608 8.76821 43.4609 8.76834 43.4609 8.76846C43.461 8.76859 43.461 8.76871 43.4611 8.76884C43.4612 8.76896 43.4612 8.76909 43.4613 8.76921C43.4614 8.76934 43.4614 8.76946 43.4615 8.76959C43.4615 8.76971 43.4616 8.76984 43.4617 8.76996C43.4617 8.77009 43.4618 8.77021 43.4619 8.77034C43.4619 8.77046 43.462 8.77059 43.462 8.77071C43.4621 8.77084 43.4622 8.77096 43.4622 8.77109C43.4623 8.77121 43.4624 8.77134 43.4624 8.77146C43.4625 8.77159 43.4625 8.77171 43.4626 8.77184C43.4627 8.77196 43.4627 8.77209 43.4628 8.77221C43.4629 8.77234 43.4629 8.77246 43.463 8.77259C43.463 8.77271 43.4631 8.77284 43.4632 8.77296C43.4632 8.77309 43.4633 8.77321 43.4634 8.77334C43.4634 8.77346 43.4635 8.77359 43.4635 8.77371C43.4636 8.77384 43.4637 8.77396 43.4637 8.77409C43.4638 8.77421 43.4639 8.77434 43.4639 8.77446C43.464 8.77459 43.464 8.77471 43.4641 8.77484C43.4642 8.77496 43.4642 8.77509 43.4643 8.77521C43.4644 8.77534 43.4644 8.77546 43.4645 8.77559C43.4645 8.77571 43.4646 8.77584 43.4647 8.77596C43.4647 8.77609 43.4648 8.77621 43.4649 8.77634C43.4649 8.77646 43.465 8.77659 43.465 8.77671C43.4651 8.77684 43.4652 8.77696 43.4652 8.77709C43.4653 8.77721 43.4654 8.77734 43.4654 8.77746C43.4655 8.77759 43.4655 8.77771 43.4656 8.77784C43.4657 8.77796 43.4657 8.77809 43.4658 8.77821C43.4659 8.77834 43.4659 8.77846 43.466 8.77859C43.466 8.77871 43.4661 8.77884 43.4662 8.77896C43.4662 8.77909 43.4663 8.77921 43.4664 8.77934C43.4664 8.77946 43.4665 8.77959 43.4665 8.77971C43.4666 8.77984 43.4667 8.77996 43.4667 8.78009C43.4668 8.78021 43.4669 8.78034 43.4669 8.78046C43.467 8.78059 43.467 8.78071 43.4671 8.78084C43.4672 8.78096 43.4672 8.78109 43.4673 8.78121C43.4674 8.78134 43.4674 8.78146 43.4675 8.78159C43.4675 8.78171 43.4676 8.78184 43.4677 8.78196C43.4677 8.78209 43.4678 8.78221 43.4679 8.78234C43.4679 8.78246 43.468 8.78259 43.468 8.78271C43.4681 8.78284 43.4682 8.78296 43.4682 8.78309C43.4683 8.78321 43.4684 8.78334 43.4684 8.78346C43.4685 8.78359 43.4685 8.78371 43.4686 8.78384C43.4687 8.78396 43.4687 8.78409 43.4688 8.78421C43.4689 8.78434 43.4689 8.78446 43.469 8.78459C43.469 8.78471 43.4691 8.78484 43.4692 8.78496C43.4692 8.78509 43.4693 8.78521 43.4694 8.78534C43.4694 8.78546 43.4695 8.78559 43.4695 8.78571C43.4696 8.78584 43.4697 8.78596 43.4697 8.78609C43.4698 8.78621 43.4699 8.78634 43.4699 8.78646C43.47 8.78659 43.47 8.78671 43.4701 8.78684C43.4702 8.78696 43.4702 8.78709 43.4703 8.78721C43.4704 8.78734 43.4704 8.78746 43.4705 8.78759C43.4705 8.78771 43.4706 8.78784 43.4707 8.78796C43.4707 8.78809 43.4708 8.78821 43.4709 8.78834C43.4709 8.78846 43.471 8.78859 43.471 8.78871C43.4711 8.78884 43.4712 8.78896 43.4712 8.78909C43.4713 8.78921 43.4714 8.78934 43.4714 8.78946C43.4715 8.78959 43.4715 8.78971 43.4716 8.78984C43.4717 8.78996 43.4717 8.79009 43.4718 8.79021C43.4719 8.79034 43.4719 8.79046 43.472 8.79059C43.472 8.79071 43.4721 8.79084 43.4722 8.79096C43.4722 8.79109 43.4723 8.79121 43.4724 8.79134C43.4724 8.79146 43.4725 8.79159 43.4725 8.79171C43.4726 8.79184 43.4727 8.79196 43.4727 8.79209C43.4728 8.79221 43.4729 8.79234 43.4729 8.79246C43.473 8.79259 43.473 8.79271 43.4731 8.79284C43.4732 8.79296 43.4732 8.79309 43.4733 8.79321C43.4734 8.79334 43.4734 8.79346 43.4735 8.79359C43.4735 8.79371 43.4736 8.79384 43.4737 8.79396C43.4737 8.79409 43.4738 8.79421 43.4739 8.79434C43.4739 8.79446 43.474 8.79459 43.474 8.79471C43.4741 8.79484 43.4742 8.79496 43.4742 8.79509C43.4743 8.79521 43.4744 8.79534 43.4744 8.79546C43.4745 8.79559 43.4745 8.79571 43.4746 8.79584C43.4747 8.79596 43.4747 8.79609 43.4748 8.79621C43.4749 8.79634 43.4749 8.79646 43.475 8.79659C43.475 8.79671 43.4751 8.79684 43.4752 8.79696C43.4752 8.79709 43.4753 8.79721 43.4754 8.79734C43.4754 8.79746 43.4755 8.79759 43.4755 8.79771C43.4756 8.79784 43.4757 8.79796 43.4757 8.79809C43.4758 8.79821 43.4759 8.79834 43.4759 8.79846C43.476 8.79859 43.476 8.79871 43.4761 8.79884C43.4762 8.79896 43.4762 8.79909 43.4763 8.79921C43.4764 8.79934 43.4764 8.79946 43.4765 8.79959C43.4765 8.79971 43.4766 8.79984 43.4767 8.79996C43.4767 8.80009 43.4768 8.80021 43.4769 8.80034C43.4769 8.80046 43.477 8.80059 43.477 8.80071C43.4771 8.80084 43.4772 8.80096 43.4772 8.80109C43.4773 8.80121 43.4774 8.80134 43.4774 8.80146C43.4775 8.80159 43.4775 8.80171 43.4776 8.80184C43.4777 8.80196 43.4777 8.80209 43.4778 8.80221C43.4779 8.80234 43.4779 8.80246 43.478 8.80259C43.478 8.80271 43.4781 8.80284 43.4782 8.80296C43.4782 8.80309 43.4783 8.80321 43.4784 8.80334C43.4784 8.80346 43.4785 8.80359 43.4785 8.80371C43.4786 8.80384 43.4787 8.80396 43.4787 8.80409C43.4788 8.80421 43.4789 8.80434 43.4789 8.80446C43.479 8.80459 43.479 8.80471 43.4791 8.80484C43.4792 8.80496 43.4792 8.80509 43.4793 8.80521C43.4794 8.80534 43.4794 8.80546 43.4795 8.80559C43.4795 8.80571 43.4796 8.80584 43.4797 8.80596C43.4797 8.80609 43.4798 8.80621 43.4799 8.80634C43.4799 8.80646 43.48 8.80659 43.48 8.80671C43.4801 8.80684 43.4802 8.80696 43.4802 8.80709C43.4803 8.80721 43.4804 8.80734 43.4804 8.80746C43.4805 8.80759 43.4805 8.80771 43.4806 8.80784C43.4807 8.80796 43.4807 8.80809 43.4808 8.80821C43.4809 8.80834 43.4809 8.80846 43.481 8.80859C43.481 8.80871 43.4811 8.80884 43.4812 8.80896C43.4812 8.80909 43.4813 8.80921 43.4814 8.80934C43.4814 8.80946 43.4815 8.80959 43.4815 8.80971C43.4816 8.80984 43.4817 8.80996 43.4817 8.81009C43.4818 8.81021 43.4819 8.81034 43.4819 8.81046C43.482 8.81059 43.482 8.81071 43.4821 8.81084C43.4822 8.81096 43.4822 8.81109 43.4823 8.81121C43.4824 8.81134 43.4824 8.81146 43.4825 8.81159C43.4825 8.81171 43.4826 8.81184 43.4827 8.81196C43.4827 8.81209 43.4828 8.81221 43.4829 8.81234C43.4829 8.81246 43.483 8.81259 43.483 8.81271C43.4831 8.81284 43.4832 8.81296 43.4832 8.81309C43.4833 8.81321 43.4834 8.81334 43.4834 8.81346C43.4835 8.81359 43.4835 8.81371 43.4836 8.81384C43.4837 8.81396 43.4837 8.81409 43.4838 8.81421C43.4839 8.81434 43.4839 8.81446 43.484 8.81459C43.484 8.81471 43.4841 8.81484 43.4842 8.81496C43.4842 8.81509 43.4843 8.81521 43.4844 8.81534C43.4844 8.81546 43.4845 8.81559 43.4845 8.81571C43.4846 8.81584 43.4847 8.81596 43.4847 8.81609C43.4848 8.81621 43.4849 8.81634 43.4849 8.81646C43.485 8.81659 43.485 8.81671 43.4851 8.81684C43.4852 8.81696 43.4852 8.81709 43.4853 8.81721C43.4854 8.81734 43.4854 8.81746 43.4855 8.81759C43.4855 8.81771 43.4856 8.81784 43.4857 8.81796C43.4857 8.81809 43.4858 8.81821 43.4859 8.81834C43.4859 8.81846 43.486 8.81859 43.486 8.81871C43.4861 8.81884 43.4862 8.81896 43.4862 8.81909C43.4863 8.81921 43.4864 8.81934 43.4864 8.81946C43.4865 8.81959 43.4865 8.81971 43.4866 8.81984C43.4867 8.81996 43.4867 8.82009 43.4868 8.82021C43.4869 8.82034 43.4869 8.82046 43.487 8.82059C43.487 8.82071 43.4871 8.82084 43.4872 8.82096C43.4872 8.82109 43.4873 8.82121 43.4874 8.82134C43.4874 8.82146 43.4875 8.82159 43.4875 8.82171C43.4876 8.82184 43.4877 8.82196 43.4877 8.82209C43.4878 8.82221 43.4879 8.82234 43.4879 8.82246C43.488 8.82259 43.488 8.82271 43.4881 8.82284C43.4882 8.82296 43.4882 8.82309 43.4883 8.82321C43.4884 8.82334 43.4884 8.82346 43.4885 8.82359C43.4885 8.82371 43.4886 8.82384 43.4887 8.82396C43.4887 8.82409 43.4888 8.82421 43.4889 8.82434C43.4889 8.82446 43.489 8.82459 43.489 8.82471C43.4891 8.82484 43.4892 8.82496 43.4892 8.82509C43.4893 8.82521 43.4894 8.82534 43.4894 8.82546C43.4895 8.82559 43.4895 8.82571 43.4896 8.82584C43.4897 8.82596 43.4897 8.82609 43.4898 8.82621C43.4899 8.82634 43.4899 8.82646 43.49 8.82659C43.49 8.82671 43.4901 8.82684 43.4902 8.82696C43.4902 8.82709 43.4903 8.82721 43.4904 8.82734C43.4904 8.82746 43.4905 8.82759 43.4905 8.82771C43.4906 8.82784 43.4907 8.82796 43.4907 8.82809C43.4908 8.82821 43.4909 8.82834 43.4909 8.82846C43.491 8.82859 43.491 8.82871 43.4911 8.82884C43.4912 8.82896 43.4912 8.82909 43.4913 8.82921C43.4914 8.82934 43.4914 8.82946 43.4915 8.82959C43.4915 8.82971 43.4916 8.82984 43.4917 8.82996C43.4917 8.83009 43.4918 8.83021 43.4919 8.83034C43.4919 8.83046 43.492 8.83059 43.492 8.83071C43.4921 8.83084 43.4922 8.83096 43.4922 8.83109C43.4923 8.83121 43.4924 8.83134 43.4924 8.83146C43.4925 8.83159 43.4925 8.83171 43.4926 8.83184C43.4927 8.83196 43.4927 8.83209 43.4928 8.83221C43.4929 8.83234 43.4929 8.83246 43.493 8.83259C43.493 8.83271 43.4931 8.83284 43.4932 8.83296C43.4932 8.83309 43.4933 8.83321 43.4934 8.83334C43.4934 8.83346 43.4935 8.83359 43.4935 8.83371C43.4936 8.83384 43.4937 8.83396 43.4937 8.83409C43.4938 8.83421 43.4939 8.83434 43.4939 8.83446C43.494 8.83459 43.494 8.83471 43.4941 8.83484C43.4942 8.83496 43.4942 8.83509 43.4943 8.83521C43.4944 8.83534 43.4944 8.83546 43.4945 8.83559C43.4945 8.83571 43.4946 8.83584 43.4947 8.83596C43.4947 8.83609 43.4948 8.83621 43.4949 8.83634C43.4949 8.83646 43.495 8.83659 43.495 8.83671C43.4951 8.83684 43.4952 8.83696 43.4952 8.83709C43.4953 8.83721 43.4954 8.83734 43.4954 8.83746C43.4955 8.83759 43.4955 8.83771 43.4956 8.83784C43.4957 8.83796 43.4957 8.83809 43.4958 8.83821C43.4959 8.83834 43.4959 8.83846 43.496 8.83859C43.496 8.83871 43.4961 8.83884 43.4962 8.83896C43.4962 8.83909 43.4963 8.83921 43.4964 8.83934C43.4964 8.83946 43.4965 8.83959 43.4965 8.83971C43.4966 8.83984 43.4967 8.83996 43.4967 8.84009C43.4968 8.84021 43.4969 8.84034 43.4969 8.84046C43.497 8.84059 43.497 8.84071 43.4971 8.84084C43.4972 8.84096 43.4972 8.84109 43.4973 8.84121C43.4974 8.84134 43.4974 8.84146 43.4975 8.84159C43.4975 8.84171 43.4976 8.84184 43.4977 8.84196C43.4977 8.84209 43.4978 8.84221 43.4979 8.84234C43.4979 8.84246 43.498 8.84259 43.498 8.84271C43.4981 8.84284 43.4982 8.84296 43.4982 8.84309C43.4983 8.84321 43.4984 8.84334 43.4984 8.84346C43.4985 8.84359 43.4985 8.84371 43.4986 8.84384C43.4987 8.84396 43.4987 8.84409 43.4988 8.84421C43.4989 8.84434 43.4989 8.84446 43.499 8.84459C43.499 8.84471 43.4991 8.84484 43.4992 8.84496C43.4992 8.84509 43.4993 8.84521 43.4994 8.84534C43.4994 8.84546 43.4995 8.84559 43.4995 8.84571C43.4996 8.84584 43.4997 8.84596 43.4997 8.84609C43.4998 8.84621 43.4999 8.84634 43.4999 8.84646C43.5 8.84659 43.5 8.84671 43.5001 8.84684C43.5002 8.84696 43.5002 8.84709 43.5003 8.84721C43.5004 8.84734 43.5004 8.84746 43.5005 8.84759C43.5005 8.84771 43.5006 8.84784 43.5007 8.84796C43.5007 8.84809 43.5008 8.84821 43.5009 8.84834C43.5009 8.84846 43.501 8.84859 43.501 8.84871C43.5011 8.84884 43.5012 8.84896 43.5012 8.84909C43.5013 8.84921 43.5014 8.84934 43.5014 8.84946C43.5015 8.84959 43.5015 8.84971 43.5016 8.84984C43.5017 8.84996 43.5017 8.85009 43.5018 8.85021C43.5019 8.85034 43.5019 8.85046 43.502 8.85059C43.502 8.85071 43.5021 8.85084 43.5022 8.85096C43.5022 8.85109 43.5023 8.85121 43.5024 8.85134C43.5024 8.85146 43.5025 8.85159 43.5025 8.85171C43.5026 8.85184 43.5027 8.85196 43.5027 8.85209C43.5028 8.85221 43.5029 8.85234 43.5029 8.85246C43.503 8.85259 43.503 8.85271 43.5031 8.85284C43.5032 8.85296 43.5032 8.85309 43.5033 8.85321C43.5034 8.85334 43.5034 8.85346 43.5035 8.85359C43.5035 8.85371 43.5036 8.85384 43.5037 8.85396C43.5037 8.85409 43.5038 8.85421 43.5039 8.85434C43.5039 8.85446 43.504 8.85459 43.504 8.85471C43.5041 8.85484 43.5042 8.85496 43.5042 8.85509C43.5043 8.85521 43.5044 8.85534 43.5044 8.85546C43.5045 8.85559 43.5045 8.85571 43.5046 8.85584C43.5047 8.85596 43.5047 8.85609 43.5048 8.85621C43.5049 8.85634 43.5049 8.85646 43.505 8.85659C43.505 8.85671 43.5051 8.85684 43.5052 8.85696C43.5052 8.85709 43.5053 8.85721 43.5054 8.85734C43.5054 8.85746 43.5055 8.85759 43.5055 8.85771C43.5056 8.85784 43.5057 8.85796 43.5057 8.85809C43.5058 8.85821 43.5059 8.85834 43.5059 8.85846C43.506 8.85859 43.506 8.85871 43.5061 8.85884C43.5062 8.85896 43.5062 8.85909 43.5063 8.85921C43.5064 8.85934 43.5064 8.85946 43.5065 8.85959C43.5065 8.85971 43.5066 8.85984 43.5067 8.85996C43.5067 8.86009 43.5068 8.86021 43.5069 8.86034C43.5069 8.86046 43.507 8.86059 43.507 8.86071C43.5071 8.86084 43.5072 8.86096 43.5072 8.86109C43.5073 8.86121 43.5074 8.86134 43.5074 8.86146C43.5075 8.86159 43.5075 8.86171 43.5076 8.86184C43.5077 8.86196 43.5077 8.86209 43.5078 8.86221C43.5079 8.86234 43.5079 8.86246 43.508 8.86259C43.508 8.86271 43.5081 8.86284 43.5082 8.86296C43.5082 8.86309 43.5083 8.86321 43.5084 8.86334C43.5084 8.86346 43.5085 8.86359 43.5085 8.86371C43.5086 8.86384 43.5087 8.86396 43.5087 8.86409C43.5088 8.86421 43.5089 8.86434 43.5089 8.86446C43.509 8.86459 43.509 8.86471 43.5091 8.86484C43.5092 8.86496 43.5092 8.86509 43.5093 8.86521C43.5094 8.86534 43.5094 8.86546 43.5095 8.86559C43.5095 8.86571 43.5096 8.86584 43.5097 8.86596C43.5097 8.86609 43.5098 8.86621 43.5099 8.86634C43.5099 8.86646 43.51 8.86659 43.51 8.86671C43.5101 8.86684 43.5102 8.86696 43.5102 8.86709C43.5103 8.86721 43.5104 8.86734 43.5104 8.86746C43.5105 8.86759 43.5105 8.86771 43.5106 8.86784C43.5107 8.86796 43.5107 8.86809 43.5108 8.86821C43.5109 8.86834 43.5109 8.86846 43.511 8.86859C43.511 8.86871 43.5111 8.86884 43.5112 8.86896C43.5112 8.86909 43.5113 8.86921 43.5114 8.86934C43.5114 8.86946 43.5115 8.86959 43.5115 8.86971C43.5116 8.86984 43.5117 8.86996 43.5117 8.87009C43.5118 8.87021 43.5119 8.87034 43.5119 8.87046C43.512 8.87059 43.512 8.87071 43.5121 8.87084C43.5122 8.87096 43.5122 8.87109 43.5123 8.87121C43.5124 8.87134 43.5124 8.87146 43.5125 8.87159C43.5125 8.87171 43.5126 8.87184 43.5127 8.87196C43.5127 8.87209 43.5128 8.87221 43.5129 8.87234C43.5129 8.87246 43.513 8.87259 43.513 8.87271C43.5131 8.87284 43.5132 8.87296 43.5132 8.87309C43.5133 8.87321 43.5134 8.87334 43.5134 8.87346C43.5135 8.87359 43.5135 8.87371 43.5136 8.87384C43.5137 8.87396 43.5137 8.87409 43.5138 8.87421C43.5139 8.87434 43.5139 8.87446 43.514 8.87459C43.514 8.87471 43.5141 8.87484 43.5142 8.87496C43.5142 8.87509 43.5143 8.87521 43.5144 8.87534C43.5144 8.87546 43.5145 8.87559 43.5145 8.87571C43.5146 8.87584 43.5147 8.87596 43.5147 8.87609C43.5148 8.87621 43.5149 8.87634 43.5149 8.87646C43.515 8.87659 43.515 8.87671 43.5151 8.87684C43.5152 8.87696 43.5152 8.87709 43.5153 8.87721C43.5154 8.87734 43.5154 8.87746 43.5155 8.87759C43.5155 8.87771 43.5156 8.87784 43.5157 8.87796C43.5157 8.87809 43.5158 8.87821 43.5159 8.87834C43.5159 8.87846 43.516 8.87859 43.516 8.87871C43.5161 8.87884 43.5162 8.87896 43.5162 8.87909C43.5163 8.87921 43.5164 8.87934 43.5164 8.87946C43.5165 8.87959 43.5165 8.87971 43.5166 8.87984C43.5167 8.87996 43.5167 8.88009 43.5168 8.88021C43.5169 8.88034 43.5169 8.88046 43.517 8.88059C43.517 8.88071 43.5171 8.88084 43.5172 8.88096C43.5172 8.88109 43.5173 8.88121 43.5174 8.88134C43.5174 8.88146 43.5175 8.88159 43.5175 8.88171C43.5176 8.88184 43.5177 8.88196 43.5177 8.88209C43.5178 8.88221 43.5179 8.88234 43.5179 8.88246C43.518 8.88259 43.518 8.88271 43.5181 8.88284C43.5182 8.88296 43.5182 8.88309 43.5183 8.88321C43.5184 8.88334 43.5184 8.88346 43.5185 8.88359C43.5185 8.88371 43.5186 8.88384 43.5187 8.88396C43.5187 8.88409 43.5188 8.88421 43.5189 8.88434C43.5189 8.88446 43.519 8.88459 43.519 8.88471C43.5191 8.88484 43.5192 8.88496 43.5192 8.88509C43.5193 8.88521 43.5194 8.88534 43.5194 8.88546C43.5195 8.88559 43.5195 8.88571 43.5196 8.88584C43.5197 8.88596 43.5197 8.88609 43.5198 8.88621C43.5199 8.88634 43.5199 8.88646 43.52 8.88659C43.52 8.88671 43.5201 8.88684 43.5202 8.88696C43.5202 8.88709 43.5203 8.88721 43.5204 8.88734C43.5204 8.88746 43.5205 8.88759 43.5205 8.88771C43.5206 8.88784 43.5207 8.88796 43.5207 8.88809C43.5208 8.88821 43.5209 8.88834 43.5209 8.88846C43.521 8.88859 43.521 8.88871 43.5211 8.88884C43.5212 8.88896 43.5212 8.88909 43.5213 8.88921C43.5214 8.88934 43.5214 8.88946 43.5215 8.88959C43.5215 8.88971 43.5216 8.88984 43.5217 8.88996C43.5217 8.89009 43.5218 8.89021 43.5219 8.89034C43.5219 8.89046 43.522 8.89059 43.522 8.89071C43.5221 8.89084 43.5222 8.89096 43.5222 8.89109C43.5223 8.89121 43.5224 8.89134 43.5224 8.89146C43.5225 8.89159 43.5225 8.89171 43.5226 8.89184C43.5227 8.89196 43.5227 8.89209 43.5228 8.89221C43.5229 8.89234 43.5229 8.89246 43.523 8.89259C43.523 8.89271 43.5231 8.89284 43.5232 8.89296C43.5232 8.89309 43.5233 8.89321 43.5234 8.89334C43.5234 8.89346 43.5235 8.89359 43.5235 8.89371C43.5236 8.89384 43.5237 8.89396 43.5237 8.89409C43.5238 8.89421 43.5239 8.89434 43.5239 8.89446C43.524 8.89459 43.524 8.89471 43.5241 8.89484C43.5242 8.89496 43.5242 8.89509 43.5243 8.89521C43.5244 8.89534 43.5244 8.89546 43.5245 8.89559C43.5245 8.89571 43.5246 8.89584 43.5247 8.89596C43.5247 8.89609 43.5248 8.89621 43.5249 8.89634C43.5249 8.89646 43.525 8.89659 43.525 8.89671C43.5251 8.89684 43.5252 8.89696 43.5252 8.89709C43.5253 8.89721 43.5254 8.89734 43.5254 8.89746C43.5255 8.89759 43.5255 8.89771 43.5256 8.89784C43.5257 8.89796 43.5257 8.89809 43.5258 8.89821C43.5259 8.89834 43.5259 8.89846 43.526 8.89859C43.526 8.89871 43.5261 8.89884 43.5262 8.89896C43.5262 8.89909 43.5263 8.89921 43.5264 8.89934C43.5264 8.89946 43.5265 8.89959 43.5265 8.89971C43.5266 8.89984 43.5267 8.89996 43.5267 8.90009C43.5268 8.90021 43.5269 8.90034 43.5269 8.90046C43.527 8.90059 43.527 8.90071 43.5271 8.90084C43.5272 8.90096 43.5272 8.90109 43.5273 8.90121C43.5274 8.90134 43.5274 8.90146 43.5275 8.90159C43.5275 8.90171 43.5276 8.90184 43.5277 8.90196C43.5277 8.90209 43.5278 8.90221 43.5279 8.90234C43.5279 8.90246 43.528 8.90259 43.528 8.90271C43.5281 8.90284 43.5282 8.90296 43.5282 8.90309C43.5283 8.90321 43.5284 8.90334 43.5284 8.90346C43.5285 8.90359 43.5285 8.90371 43.5286 8.90384C43.5287 8.90396 43.5287 8.90409 43.5288 8.90421C43.5289 8.90434 43.5289 8.90446 43.529 8.90459C43.529 8.90471 43.5291 8.90484 43.5292 8.90496C43.5292 8.90509 43.5293 8.90521 43.5294 8.90534C43.5294 8.90546 43.5295 8.90559 43.5295 8.90571C43.5296 8.90584 43.5297 8.90596 43.5297 8.90609C43.5298 8.90621 43.5299 8.90634 43.5299 8.90646C43.53 8.90659 43.53 8.90671 43.5301 8.90684C43.5302 8.90696 43.5302 8.90709 43.5303 8.90721C43.5304 8.90734 43.5304 8.90746 43.5305 8.90759C43.5305 8.90771 43.5306 8.90784 43.5307 8.90796C43.5307 8.90809 43.5308 8.90821 43.5309 8.90834C43.5309 8.90846 43.531 8.90859 43.531 8.90871C43.5311 8.90884 43.5312 8.90896 43.5312 8.90909C43.5313 8.90921 43.5314 8.90934 43.5314 8.90946C43.5315 8.90959 43.5315 8.90971 43.5316 8.90984C43.5317 8.90996 43.5317 8.91009 43.5318 8.91021C43.5319 8.91034 43.5319 8.91046 43.532 8.91059C43.532 8.91071 43.5321 8.91084 43.5322 8.91096C43.5322 8.91109 43.5323 8.91121 43.5324 8.91134C43.5324 8.91146 43.5325 8.91159 43.5325 8.91171C43.5326 8.91184 43.5327 8.91196 43.5327 8.91209C43.5328 8.91221 43.5329 8.91234 43.5329 8.91246C43.533 8.91259 43.533 8.91271 43.5331 8.91284C43.5332 8.91296 43.5332 8.91309 43.5333 8.91321C43.5334 8.91334 43.5334 8.91346 43.5335 8.91359C43.5335 8.91371 43.5336 8.91384 43.5337 8.91396C43.5337 8.91409 43.5338 8.91421 43.5339 8.91434C43.5339 8.91446 43.534 8.91459 43.534 8.91471C43.5341 8.91484 43.5342 8.91496 43.5342 8.91509C43.5343 8.91521 43.5344 8.91534 43.5344 8.91546C43.5345 8.91559 43.5345 8.91571 43.5346 8.91584C43.5347 8.91596 43.5347 8.91609 43.5348 8.91621C43.5349 8.91634 43.5349 8.91646 43.535 8.91659C43.535 8.91671 43.5351 8.91684 43.5352 8.91696C43.5352 8.91709 43.5353 8.91721 43.5354 8.91734C43.5354 8.91746 43.5355 8.91759 43.5355 8.91771C43.5356 8.91784 43.5357 8.91796 43.5357 8.91809C43.5358 8.91821 43.5359 8.91834 43.5359 8.91846C43.536 8.91859 43.536 8.91871 43.5361 8.91884C43.5362 8.91896 43.5362 8.91909 43.5363 8.91921C43.5364 8.91934 43.5364 8.91946 43.5365 8.91959C43.5365 8.91971 43.5366 8.91984 43.5367 8.91996C43.5367 8.92009 43.5368 8.92021 43.5369 8.92034C43.5369 8.92046 43.537 8.92059 43.537 8.92071C43.5371 8.92084 43.5372 8.92096 43.5372 8.92109C43.5373 8.92121 43.5374 8.92134 43.5374 8.92146C43.5375 8.92159 43.5375 8.92171 43.5376 8.92184C43.5377 8.92196 43.5377 8.92209 43.5378 8.92221C43.5379 8.92234 43.5379 8.92246 43.538 8.92259C43.538 8.92271 43.5381 8.92284 43.5382 8.92296C43.5382 8.92309 43.5383 8.92321 43.5384 8.92334C43.5384 8.92346 43.5385 8.92359 43.5385 8.92371C43.5386 8.92384 43.5387 8.92396 43.5387 8.92409C43.5388 8.92421 43.5389 8.92434 43.5389 8.92446C43.539 8.92459 43.539 8.92471 43.5391 8.92484C43.5392 8.92496 43.5392 8.92509 43.5393 8.92521C43.5394 8.92534 43.5394 8.92546 43.5395 8.92559C43.5395 8.92571 43.5396 8.92584 43.5397 8.92596C43.5397 8.92609 43.5398 8.92621 43.5399 8.92634C43.5399 8.92646 43.54 8.92659 43.54 8.92671C43.5401 8.92684 43.5402 8.92696 43.5402 8.92709C43.5403 8.92721 43.5404 8.92734 43.5404 8.92746C43.5405 8.92759 43.5405 8.92771 43.5406 8.92784C43.5407 8.92796 43.5407 8.92809 43.5408 8.92821C43.5409 8.92834 43.5409 8.92846 43.541 8.92859C43.541 8.92871 43.5411 8.92884 43.5412 8.92896C43.5412 8.92909 43.5413 8.92921 43.5414 8.92934C43.5414 8.92946 43.5415 8.92959 43.5415 8.92971C43.5416 8.92984 43.5417 8.92996 43.5417 8.93009C43.5418 8.93021 43.5419 8.93034 43.5419 8.93046C43.542 8.93059 43.542 8.93071 43.5421 8.93084C43.5422 8.93096 43.5422 8.93109 43.5423 8.93121L45.3311 8.03679ZM45.2894 7.97577C45.2549 7.87213 45.2151 7.77014 45.1705 7.66987L43.3429 8.48213C43.3623 8.52586 43.3786 8.56787 43.392 8.60823L45.2894 7.97577ZM45.2054 7.75977C45.1136 7.48427 45.0175 7.21263 44.917 6.94488L43.0444 7.64712C43.136 7.89137 43.2239 8.13973 43.308 8.39223L45.2054 7.75977ZM44.917 6.94488C44.8243 6.69743 44.7354 6.45011 44.6504 6.20292L42.759 6.85308C42.8501 7.11789 42.9452 7.38257 43.0444 7.64712L44.917 6.94488ZM43.7047 5.528H40.4167V7.528H43.7047V5.528ZM39.468 6.21177C39.3747 6.49187 39.2774 6.77206 39.1762 7.05236L41.0573 7.73164C41.1641 7.43594 41.2668 7.14013 41.3654 6.84423L39.468 6.21177ZM39.168 7.07577C39.0712 7.36641 38.9743 7.66098 38.8775 7.9595L40.7799 8.5765C40.8751 8.28302 40.9703 7.99359 41.0654 7.70823L39.168 7.07577ZM38.9343 7.82079C38.8652 7.95902 38.8056 8.11248 38.7685 8.27907L40.7209 8.71293C40.7196 8.71884 40.7184 8.72329 40.7175 8.72622C40.7166 8.72915 40.7161 8.73065 40.7161 8.73071C40.716 8.73076 40.7165 8.72947 40.7177 8.72684C40.7188 8.7242 40.7206 8.72033 40.7231 8.71521L38.9343 7.82079ZM38.7524 8.37197C38.7401 8.47108 38.7327 8.57288 38.7327 8.676H40.7327C40.7327 8.66712 40.7334 8.64892 40.737 8.62003L38.7524 8.37197ZM38.7327 8.676C38.7327 8.8638 38.7634 9.26494 39.0856 9.58711L40.4998 8.17289C40.6244 8.29749 40.6816 8.43022 40.7071 8.51683C40.7317 8.60037 40.7327 8.65988 40.7327 8.676H38.7327ZM38.889 9.30809C39.14 9.83798 39.6734 9.98033 39.867 10.0252C40.1398 10.0884 40.4555 10.108 40.7767 10.108V8.108C40.6513 8.108 40.5498 8.10388 40.4698 8.0972C40.388 8.09039 40.3402 8.08186 40.3184 8.07681C40.2915 8.07056 40.3266 8.07486 40.3899 8.11097C40.4539 8.14747 40.5996 8.24754 40.6965 8.45191L38.889 9.30809ZM39.7767 9.108V9.516H41.7767V9.108H39.7767ZM40.7767 8.516H38.1967V10.516H40.7767V8.516ZM39.1967 9.516V9.108H37.1967V9.516H39.1967ZM38.1967 10.108C38.4813 10.108 38.8009 10.0717 39.1015 9.94016L38.2999 8.10784C38.3259 8.09649 38.334 8.09733 38.3143 8.10061C38.295 8.10383 38.2572 8.108 38.1967 8.108V10.108ZM39.0335 9.96699C39.3755 9.84629 39.6426 9.62907 39.8446 9.38371L38.3008 8.11229C38.2893 8.12618 38.2882 8.12458 38.2999 8.1159C38.3124 8.1066 38.3353 8.09251 38.3679 8.08101L39.0335 9.96699ZM39.8621 9.36194C39.9847 9.20422 40.0767 9.03198 40.1479 8.86592L38.3096 8.07808C38.2978 8.10546 38.2887 8.12311 38.2832 8.13294C38.2775 8.14289 38.2771 8.14213 38.2834 8.13406L39.8621 9.36194ZM40.1479 8.86592C40.1981 8.74876 40.2519 8.62029 40.3094 8.48075L38.46 7.71925C38.4055 7.85171 38.3554 7.97124 38.3096 8.07808L40.1479 8.86592ZM40.3277 8.43282C40.3777 8.29112 40.4633 8.04241 40.5832 7.69067L38.6902 7.04533C38.5701 7.39759 38.4877 7.63688 38.4417 7.76718L40.3277 8.43282ZM40.5765 7.70974C40.7069 7.3512 40.8528 6.93775 41.0141 6.46999L39.1233 5.81801C38.9646 6.27825 38.8225 6.6808 38.6969 7.02626L40.5765 7.70974ZM41.0141 6.46999C41.1725 6.01048 41.3431 5.52657 41.5258 5.0182L39.6436 4.3418C39.4583 4.85743 39.2849 5.34952 39.1233 5.81801L41.0141 6.46999ZM41.5258 5.0182C41.7111 4.50257 41.8845 4.01048 42.0461 3.54199L40.1553 2.89001C39.9969 3.34952 39.8263 3.83343 39.6436 4.3418L41.5258 5.0182ZM42.0461 3.54199C42.2064 3.07721 42.3468 2.66806 42.4672 2.31467L40.5742 1.66933C40.4547 2.01994 40.3151 2.42679 40.1553 2.89001L42.0461 3.54199ZM42.4605 2.33374C42.5884 1.982 42.6779 1.73386 42.7277 1.59282L40.8417 0.927179C40.7955 1.05814 40.709 1.298 40.5809 1.65026L42.4605 2.33374ZM42.2588 2.14047C42.3453 2.09389 42.431 2.0511 42.5158 2.01196L41.6777 0.196041C41.5545 0.252899 41.4321 0.314105 41.3106 0.379528L42.2588 2.14047ZM42.5708 1.98447C42.6748 1.92847 42.7788 1.87247 42.8828 1.81647L41.9346 0.0555294C41.8306 0.111529 41.7266 0.167528 41.6226 0.223527L42.5708 1.98447ZM41.4754 1.29498C41.9548 2.54151 42.4262 3.77601 42.8897 4.99847L44.7598 4.28953C44.2952 3.06399 43.8226 1.82649 43.3421 0.57702L41.4754 1.29498ZM42.8904 5.00051C43.3547 6.21735 43.8271 7.45018 44.3074 8.69898L46.1741 7.98102C45.6944 6.73382 45.2227 5.50265 44.759 4.28749L42.8904 5.00051ZM44.3067 8.69714C44.441 9.04844 44.6437 9.42215 44.9725 9.69622L46.2529 8.15978C46.2773 8.18014 46.2758 8.18633 46.2568 8.15636C46.2379 8.1265 46.2088 8.07184 46.1748 7.98286L44.3067 8.69714ZM45.0315 9.74173C45.4516 10.0418 45.964 10.108 46.3927 10.108V8.108C46.2699 8.108 46.1958 8.09719 46.1586 8.08861C46.121 8.07993 46.1446 8.07899 46.194 8.11427L45.0315 9.74173ZM45.3927 9.108V9.516H47.3927V9.108H45.3927ZM44.4846 5.69567C44.2274 5.01246 43.9662 4.32926 43.7009 3.64608L41.8365 4.36992C42.0993 5.04674 42.3581 5.72354 42.6128 6.40033L44.4846 5.69567ZM43.7046 3.65567C43.4486 2.97567 43.1926 2.29567 42.9366 1.61567L41.0648 2.32033C41.3208 3.00033 41.5768 3.68033 41.8328 4.36033L43.7046 3.65567ZM41.0577 1.63518C40.8177 2.31518 40.5777 2.99518 40.3377 3.67518L42.2237 4.34082C42.4637 3.66082 42.7037 2.98082 42.9437 2.30082L41.0577 1.63518ZM40.3343 3.6851C40.1034 4.36177 39.8686 5.03847 39.6297 5.71518L41.5157 6.38082C41.7569 5.69753 41.994 5.01423 42.2272 4.3309L40.3343 3.6851ZM40.5727 7.048H43.5487V5.048H40.5727V7.048ZM66.2186 9.516V10.516H67.2186V9.516H66.2186ZM63.3626 9.516H62.3626V10.516H63.3626V9.516ZM63.3626 9.132V8.132H62.3626V9.132H63.3626ZM64.2746 8.94L64.9187 9.70491L64.9391 9.68775L64.9585 9.66954L64.2746 8.94ZM64.4666 1.92H65.4666L63.5346 1.55755L64.4666 1.92ZM62.9786 5.76L62.0457 5.39983L62.0445 5.40302L62.9786 5.76ZM61.5266 9.588V10.588H62.2186L62.4624 9.94039L61.5266 9.588ZM61.1546 9.588L60.219 9.94106L60.4631 10.588H61.1546V9.588ZM59.7506 5.808L58.8106 6.14926L58.8113 6.15119L59.7506 5.808ZM58.3466 2.004L59.2829 1.65288L57.3466 2.004H58.3466ZM58.5506 8.976L57.9149 9.74793L57.9584 9.78374L58.0056 9.81444L58.5506 8.976ZM59.3786 9.132H60.3786V8.132H59.3786V9.132ZM59.3786 9.516V10.516H60.3786V9.516H59.3786ZM56.9186 9.516H55.9186V10.516H56.9186V9.516ZM56.9186 9.132V8.132H55.9186V9.132H56.9186ZM57.6866 9L58.278 9.80645L58.2866 9.8L57.6866 9ZM57.6866 1.704L57.056 2.48011L57.0711 2.49235L57.0866 2.504L57.6866 1.704ZM56.9306 1.548H55.9306V2.548H56.9306V1.548ZM56.9306 1.152V0.151999H55.9306V1.152H56.9306ZM58.9226 1.152L59.862 0.809237L59.6222 0.151999H58.9226V1.152ZM60.2186 4.656L59.2822 5.00713L59.2844 5.0128L60.2186 4.656ZM61.5266 8.172L60.5864 8.51273L61.5266 11.1069L62.4668 8.51273L61.5266 8.172ZM62.8226 4.656L61.8884 4.29919L61.8863 4.30488L62.8226 4.656ZM64.1306 1.152V0.151999H63.431L63.1912 0.809237L64.1306 1.152ZM66.2186 1.152H67.2186V0.151999H66.2186V1.152ZM66.2186 1.548V2.548H67.2186V1.548H66.2186ZM65.3666 1.704L64.6595 0.996893L64.6172 1.03917L64.5803 1.08618L65.3666 1.704ZM65.3906 8.94L64.6835 9.64711L64.7137 9.67736L64.7465 9.70491L65.3906 8.94ZM66.2186 9.132H67.2186V8.132H66.2186V9.132ZM66.2186 8.516H63.3626V10.516H66.2186V8.516ZM64.3626 9.516V9.132H62.3626V9.516H64.3626ZM63.3626 10.132C63.6309 10.132 63.8954 10.1137 64.1386 10.0625C64.3697 10.0139 64.6649 9.91864 64.9187 9.70491L63.6305 8.17509C63.6856 8.12865 63.73 8.10828 63.744 8.10236C63.7584 8.09631 63.7553 8.09941 63.7266 8.10545C63.6658 8.11826 63.5503 8.132 63.3626 8.132V10.132ZM64.9585 9.66954C65.3474 9.30498 65.4666 8.82716 65.4666 8.412H63.4666C63.4666 8.43824 63.4627 8.42042 63.4788 8.37626C63.4968 8.32689 63.5325 8.26503 63.5907 8.21046L64.9585 9.66954ZM65.4666 8.412V1.92H63.4666V8.412H65.4666ZM63.5346 1.55755C63.0303 2.85429 62.534 4.13505 62.0457 5.39983L63.9115 6.12017C64.3992 4.85695 64.8949 3.57771 65.3986 2.28245L63.5346 1.55755ZM62.0445 5.40302C61.5639 6.66059 61.0793 7.93812 60.5907 9.23561L62.4624 9.94039C62.9499 8.64588 63.4333 7.37141 63.9127 6.11698L62.0445 5.40302ZM61.5266 8.588H61.1546V10.588H61.5266V8.588ZM62.0902 9.23494C61.6114 7.96615 61.1446 6.70944 60.6899 5.46481L58.8113 6.15119C59.2686 7.40256 59.7378 8.66585 60.219 9.94106L62.0902 9.23494ZM60.6906 5.46674C60.2333 4.20737 59.7641 2.93608 59.2829 1.65288L57.4103 2.35512C57.8891 3.63192 58.3558 4.89663 58.8106 6.14926L60.6906 5.46674ZM57.3466 2.004V8.412H59.3466V2.004H57.3466ZM57.3466 8.412C57.3466 8.82286 57.4522 9.36686 57.9149 9.74793L59.1863 8.20407C59.2746 8.27679 59.3194 8.3594 59.338 8.41086C59.3538 8.45461 59.3466 8.46305 59.3466 8.412H57.3466ZM58.0056 9.81444C58.4261 10.0877 58.959 10.132 59.3786 10.132V8.132C59.2224 8.132 59.1211 8.12128 59.0627 8.11029C58.9978 8.09806 59.0273 8.0932 59.0956 8.13756L58.0056 9.81444ZM58.3786 9.132V9.516H60.3786V9.132H58.3786ZM59.3786 8.516H56.9186V10.516H59.3786V8.516ZM57.9186 9.516V9.132H55.9186V9.516H57.9186ZM56.9186 10.132C57.1459 10.132 57.3695 10.1197 57.574 10.0845C57.7568 10.0531 58.0321 9.98667 58.278 9.8064L57.0952 8.1936C57.1664 8.14139 57.2232 8.12004 57.2398 8.11421C57.2586 8.10763 57.2597 8.10924 57.2352 8.11345C57.1837 8.12231 57.0833 8.132 56.9186 8.132V10.132ZM58.2866 9.8C58.7289 9.46829 58.8786 8.98348 58.8786 8.556H56.8786C56.8786 8.55132 56.8792 8.49765 56.9127 8.42009C56.9492 8.33566 57.0102 8.25727 57.0866 8.2L58.2866 9.8ZM58.8786 8.556V2.196H56.8786V8.556H58.8786ZM58.8786 2.196C58.8786 1.79806 58.7655 1.26316 58.2866 0.904L57.0866 2.504C56.9868 2.42919 56.9277 2.33608 56.899 2.26254C56.8739 2.1983 56.8786 2.16698 56.8786 2.196H58.8786ZM58.3172 0.927886C58.0781 0.733643 57.8072 0.649634 57.6037 0.607633C57.3884 0.563217 57.1584 0.547999 56.9306 0.547999V2.548C57.0021 2.548 57.0604 2.5505 57.1068 2.55434C57.1537 2.55822 57.1836 2.56308 57.1995 2.56637C57.2162 2.56982 57.2097 2.56993 57.1876 2.56083C57.1658 2.5519 57.1158 2.5287 57.056 2.48011L58.3172 0.927886ZM57.9306 1.548V1.152H55.9306V1.548H57.9306ZM56.9306 2.152H58.9226V0.151999H56.9306V2.152ZM57.9832 1.49476C58.4162 2.68149 58.8492 3.85227 59.2823 5.00712L61.1549 4.30488C60.724 3.15573 60.293 1.99051 59.862 0.809237L57.9832 1.49476ZM59.2844 5.0128C59.7223 6.15932 60.1563 7.32595 60.5864 8.51273L62.4668 7.83127C62.0329 6.63405 61.5949 5.45668 61.1528 4.2992L59.2844 5.0128ZM62.4668 8.51273C62.8975 7.3241 63.3283 6.15556 63.7589 5.00712L61.8863 4.30488C61.4529 5.46044 61.0197 6.6359 60.5864 7.83127L62.4668 8.51273ZM63.7568 5.0128C64.1986 3.85604 64.6363 2.68335 65.07 1.49476L63.1912 0.809237C62.7608 1.98865 62.3266 3.15196 61.8884 4.2992L63.7568 5.0128ZM64.1306 2.152H66.2186V0.151999H64.1306V2.152ZM65.2186 1.152V1.548H67.2186V1.152H65.2186ZM66.2186 0.547999C65.9578 0.547999 65.7035 0.561969 65.4775 0.603352C65.2967 0.636448 64.9384 0.717961 64.6595 0.996893L66.0737 2.41111C66.0215 2.46332 65.972 2.49842 65.9352 2.52086C65.8985 2.54332 65.8688 2.55656 65.8514 2.56356C65.8191 2.57653 65.8097 2.57577 65.8377 2.57065C65.8632 2.56599 65.907 2.55998 65.9737 2.55534C66.0395 2.55077 66.1206 2.548 66.2186 2.548V0.547999ZM64.5803 1.08618C64.3125 1.42695 64.2346 1.8215 64.2346 2.16H66.2346C66.2346 2.11449 66.2447 2.20505 66.1529 2.32182L64.5803 1.08618ZM64.2346 2.16V8.412H66.2346V2.16H64.2346ZM64.2346 8.412C64.2346 8.75402 64.2982 9.26187 64.6835 9.64711L66.0977 8.23289C66.1895 8.32467 66.2228 8.41361 66.2326 8.44665C66.2414 8.47648 66.2346 8.47136 66.2346 8.412H64.2346ZM64.7465 9.70491C65.1888 10.0774 65.7847 10.132 66.2186 10.132V8.132C66.0662 8.132 65.9781 8.11926 65.9375 8.10985C65.919 8.10555 65.921 8.10435 65.9371 8.1116C65.9536 8.11897 65.9903 8.13763 66.0347 8.17509L64.7465 9.70491ZM65.2186 9.132V9.516H67.2186V9.132H65.2186ZM80.0877 9.516V10.516H81.0877V9.516H80.0877ZM77.2557 9.516H76.2557V10.516H77.2557V9.516ZM77.2557 9.132V8.132H76.2557V9.132H77.2557ZM78.0717 8.976L78.6364 9.80131L78.6424 9.79718L78.6484 9.79297L78.0717 8.976ZM78.0717 1.692L78.7074 0.920069L78.6772 0.895201L78.6451 0.872768L78.0717 1.692ZM77.2557 1.524H76.2557V2.524H77.2557V1.524ZM77.2557 1.152V0.151999H76.2557V1.152H77.2557ZM80.0877 1.152H81.0877V0.151999H80.0877V1.152ZM80.0877 1.524V2.524H81.0877V1.524H80.0877ZM79.7037 1.56L79.8557 2.54837L79.8846 2.54393L79.9132 2.5378L79.7037 1.56ZM79.4277 1.62L79.1403 0.662174L79.1109 0.671017L79.082 0.681656L79.4277 1.62ZM79.1277 1.86L80.0221 2.30721L80.0291 2.29324L80.0356 2.27906L79.1277 1.86ZM79.2357 8.976L78.6809 9.80811L78.6907 9.81444L79.2357 8.976ZM80.0877 9.132H81.0877V8.132H80.0877V9.132ZM80.0877 8.516H77.2557V10.516H80.0877V8.516ZM78.2557 9.516V9.132H76.2557V9.516H78.2557ZM77.2557 10.132C77.6666 10.132 78.2133 10.0908 78.6364 9.80131L77.507 8.15069C77.5505 8.12094 77.5821 8.10861 77.5899 8.10576C77.598 8.10276 77.5918 8.10584 77.5659 8.11079C77.5114 8.12121 77.4124 8.132 77.2557 8.132V10.132ZM78.6484 9.79297C79.1363 9.44852 79.2757 8.9222 79.2757 8.496H77.2757C77.2757 8.51072 77.273 8.46668 77.3044 8.39286C77.3397 8.30968 77.4042 8.22314 77.495 8.15903L78.6484 9.79297ZM79.2757 8.496V2.244H77.2757V8.496H79.2757ZM79.2757 2.244C79.2757 1.829 79.1638 1.29591 78.7074 0.920069L77.436 2.46393C77.3523 2.39503 77.3069 2.31537 77.2867 2.26065C77.2693 2.2136 77.2757 2.20013 77.2757 2.244H79.2757ZM78.6451 0.872768C78.2191 0.574525 77.6789 0.524 77.2557 0.524V2.524C77.4036 2.524 77.4961 2.53518 77.546 2.54546C77.6006 2.5567 77.5666 2.55908 77.4982 2.51123L78.6451 0.872768ZM78.2557 1.524V1.152H76.2557V1.524H78.2557ZM77.2557 2.152H80.0877V0.151999H77.2557V2.152ZM79.0877 1.152V1.524H81.0877V1.152H79.0877ZM80.0877 0.524C79.8904 0.524 79.6899 0.540243 79.4942 0.582198L79.9132 2.5378C79.9414 2.53176 79.997 2.524 80.0877 2.524V0.524ZM79.5516 0.571628C79.413 0.592949 79.2743 0.62198 79.1403 0.662174L79.715 2.57783C79.7411 2.57002 79.7863 2.55905 79.8557 2.54837L79.5516 0.571628ZM79.082 0.681656C78.7853 0.790945 78.4181 1.0112 78.2197 1.44094L80.0356 2.27906C79.9872 2.38392 79.9201 2.45746 79.8634 2.50287C79.8364 2.52443 79.8136 2.53831 79.7984 2.54652C79.7832 2.55469 79.7741 2.55807 79.7734 2.55834L79.082 0.681656ZM78.2333 1.41279C78.0902 1.69897 78.0557 1.99867 78.0557 2.244H80.0557C80.0557 2.21241 80.0582 2.20362 80.0566 2.21229C80.0549 2.22089 80.0474 2.25663 80.0221 2.30721L78.2333 1.41279ZM78.0557 2.244V8.496H80.0557V2.244H78.0557ZM78.0557 8.496C78.0557 8.84556 78.137 9.44542 78.681 9.80805L79.7904 8.14395C79.9353 8.24058 80.0074 8.36581 80.037 8.44488C80.0624 8.51259 80.0557 8.54088 80.0557 8.496H78.0557ZM78.6907 9.81444C79.115 10.0902 79.6617 10.132 80.0877 10.132V8.132C79.9215 8.132 79.8127 8.12105 79.7488 8.10935C79.7182 8.10374 79.707 8.09959 79.7104 8.10079C79.7133 8.10182 79.7406 8.11151 79.7807 8.13756L78.6907 9.81444ZM79.0877 9.132V9.516H81.0877V9.132H79.0877ZM131.888 1.152L132.832 0.822628L132.598 0.151999H131.888V1.152ZM132.596 3.216L132.839 4.18614L133.865 3.92946L133.551 2.91893L132.596 3.216ZM132.416 3.276L132.022 2.35685L131.995 2.36843L131.969 2.38157L132.416 3.276ZM132.248 3.336L131.337 3.74817L131.681 4.50856L132.491 4.30614L132.248 3.336ZM131.804 2.52L130.958 3.05281L130.97 3.07127L130.982 3.08921L131.804 2.52ZM131.396 2.004L132.081 1.2758L132.075 1.26988L132.069 1.26406L131.396 2.004ZM130.772 1.68L130.545 2.65384L130.545 2.65384L130.772 1.68ZM129.152 1.704L129.562 2.61592L129.581 2.60755L129.599 2.59843L129.152 1.704ZM129.176 9L129.658 8.12378L129.655 8.1221L129.176 9ZM130.22 9.132H131.22V8.132H130.22V9.132ZM130.22 9.516V10.516H131.22V9.516H130.22ZM126.836 9.516H125.836V10.516H126.836V9.516ZM126.836 9.132V8.132H125.836V9.132H126.836ZM127.808 9.012L127.387 8.10495L127.378 8.10914L127.808 9.012ZM127.952 1.692L127.482 2.57435L127.493 2.58054L127.505 2.58643L127.952 1.692ZM126.356 1.668L126.196 0.680885L126.192 0.681606L126.356 1.668ZM125.612 2.004L126.245 2.77796L126.252 2.77272L126.258 2.76739L125.612 2.004ZM125.36 2.268L126.128 2.90818L126.141 2.89319L126.153 2.87771L125.36 2.268ZM125.084 2.652L124.246 2.10701L124.239 2.11737L124.232 2.1279L125.084 2.652ZM124.904 2.964L125.768 3.46787L125.777 3.45313L125.785 3.4381L124.904 2.964ZM124.724 3.276L124.277 4.17043L125.123 4.59348L125.592 3.77214L124.724 3.276ZM124.58 3.216L124.066 4.07349L124.16 4.12997L124.264 4.16468L124.58 3.216ZM124.448 3.144L123.506 2.80766L123.208 3.64215L124.001 4.03843L124.448 3.144ZM124.808 2.148L125.747 2.49158L125.747 2.49158L124.808 2.148ZM125.168 1.152V0.151999H124.463L124.226 0.815663L125.168 1.152ZM130.944 1.48137C131.065 1.82765 131.186 2.16997 131.306 2.50834L133.19 1.83566C133.071 1.50203 132.952 1.16435 132.832 0.822628L130.944 1.48137ZM131.306 2.50834C131.421 2.83063 131.533 3.16551 131.641 3.51307L133.551 2.91893C133.435 2.54649 133.315 2.18537 133.19 1.83566L131.306 2.50834ZM132.354 2.24586C132.242 2.27374 132.131 2.3102 132.022 2.35685L132.81 4.19515C132.813 4.1938 132.822 4.19026 132.839 4.18614L132.354 2.24586ZM131.969 2.38157C131.984 2.37378 131.996 2.36936 132.002 2.36726C132.008 2.36515 132.009 2.36494 132.006 2.36586L132.491 4.30614C132.61 4.27631 132.737 4.23348 132.863 4.17043L131.969 2.38157ZM133.159 2.92383C132.993 2.55541 132.816 2.22519 132.626 1.95079L130.982 3.08921C131.08 3.23081 131.2 3.44459 131.337 3.74817L133.159 2.92383ZM132.65 1.98719C132.484 1.72373 132.297 1.47865 132.081 1.2758L130.711 2.7322C130.767 2.78535 130.852 2.88427 130.958 3.05281L132.65 1.98719ZM132.069 1.26406C131.762 0.98517 131.399 0.799433 130.999 0.706158L130.545 2.65384C130.625 2.67257 130.678 2.70283 130.723 2.74394L132.069 1.26406ZM130.999 0.706159C130.689 0.633853 130.377 0.595999 130.064 0.595999V2.596C130.215 2.596 130.375 2.61415 130.545 2.65384L130.999 0.706159ZM130.064 0.595999C129.811 0.595999 129.576 0.605611 129.371 0.629938C129.188 0.651565 128.936 0.694196 128.705 0.809572L129.599 2.59843C129.545 2.62538 129.513 2.63156 129.524 2.6289C129.532 2.62711 129.557 2.62182 129.606 2.61606C129.704 2.60439 129.854 2.596 130.064 2.596V0.595999ZM128.742 0.792078C128.479 0.910371 128.25 1.10737 128.098 1.38036C127.954 1.64008 127.912 1.90932 127.912 2.136H129.912C129.912 2.14668 129.911 2.23592 129.846 2.35164C129.775 2.48063 129.665 2.56963 129.562 2.61592L128.742 0.792078ZM127.912 2.136V8.508H129.912V2.136H127.912ZM127.912 8.508C127.912 9.03648 128.143 9.57574 128.697 9.8779L129.655 8.1221C129.724 8.15966 129.804 8.22962 129.859 8.33218C129.91 8.42714 129.912 8.49899 129.912 8.508H127.912ZM128.694 9.87622C128.945 10.0141 129.226 10.0651 129.432 10.0911C129.663 10.1203 129.93 10.132 130.22 10.132V8.132C129.975 8.132 129.799 8.12166 129.683 8.1069C129.625 8.09961 129.594 8.09273 129.583 8.08989C129.568 8.08601 129.601 8.09258 129.658 8.12378L128.694 9.87622ZM129.22 9.132V9.516H131.22V9.132H129.22ZM130.22 8.516H126.836V10.516H130.22V8.516ZM127.836 9.516V9.132H125.836V9.516H127.836ZM126.836 10.132C127.1 10.132 127.345 10.1212 127.562 10.0945C127.763 10.0697 128.01 10.0233 128.238 9.91486L127.378 8.10914C127.416 8.09133 127.433 8.08882 127.416 8.09298C127.401 8.0966 127.369 8.10301 127.317 8.10953C127.209 8.12278 127.052 8.132 126.836 8.132V10.132ZM128.229 9.91901C128.471 9.80686 128.714 9.63056 128.892 9.3627C129.073 9.09094 129.144 8.79117 129.144 8.508H127.144C127.144 8.45683 127.159 8.35706 127.228 8.2533C127.295 8.15344 127.369 8.11314 127.387 8.10499L128.229 9.91901ZM129.144 8.508V2.04H127.144V8.508H129.144ZM129.144 2.04C129.144 1.83142 129.104 1.58437 128.972 1.34392C128.834 1.09422 128.629 0.912517 128.399 0.797573L127.505 2.58643C127.403 2.53548 127.294 2.44378 127.221 2.31008C127.152 2.18563 127.144 2.08058 127.144 2.04H129.144ZM128.423 0.809647C128.203 0.692547 127.97 0.649576 127.809 0.62849C127.629 0.604807 127.429 0.595999 127.22 0.595999V2.596C127.38 2.596 127.486 2.60319 127.549 2.61151C127.58 2.61556 127.59 2.61848 127.584 2.61694C127.581 2.61613 127.54 2.6057 127.482 2.57435L128.423 0.809647ZM127.22 0.595999C126.883 0.595999 126.541 0.624913 126.196 0.680895L126.516 2.65511C126.763 2.61509 126.997 2.596 127.22 2.596V0.595999ZM126.192 0.681606C125.739 0.757018 125.322 0.93992 124.966 1.24061L126.258 2.76739C126.319 2.71608 126.397 2.67498 126.521 2.65439L126.192 0.681606ZM124.979 1.23004C124.823 1.35726 124.687 1.50269 124.568 1.65829L126.153 2.87771C126.193 2.82531 126.225 2.79474 126.245 2.77796L124.979 1.23004ZM124.592 1.62782C124.477 1.76549 124.361 1.9292 124.246 2.10701L125.923 3.19699C126.015 3.0548 126.083 2.96251 126.128 2.90818L124.592 1.62782ZM124.232 2.1279C124.159 2.24774 124.089 2.3684 124.024 2.4899L125.785 3.4381C125.831 3.3516 125.882 3.26426 125.936 3.1761L124.232 2.1279ZM124.04 2.46013C123.983 2.55907 123.921 2.66568 123.856 2.77986L125.592 3.77214C125.655 3.66232 125.714 3.56093 125.768 3.46787L124.04 2.46013ZM125.171 2.38157C125.084 2.33768 124.992 2.29915 124.896 2.26732L124.264 4.16468C124.264 4.16485 124.269 4.16632 124.277 4.17043L125.171 2.38157ZM125.095 2.35851C125.03 2.31956 124.963 2.28336 124.895 2.24957L124.001 4.03843C124.029 4.05264 124.051 4.06444 124.066 4.07349L125.095 2.35851ZM125.39 3.48034C125.509 3.1467 125.628 2.81712 125.747 2.49158L123.869 1.80442C123.748 2.13488 123.627 2.4693 123.506 2.80766L125.39 3.48034ZM125.747 2.49158C125.868 2.16112 125.989 1.8267 126.11 1.48834L124.226 0.815663C124.107 1.1493 123.988 1.47888 123.869 1.80442L125.747 2.49158ZM125.168 2.152H131.888V0.151999H125.168V2.152ZM147.81 1.548V2.548H148.81V1.548H147.81ZM146.946 1.704L146.381 0.878693L146.367 0.887925L146.354 0.897595L146.946 1.704ZM146.166 8.808L146.931 9.45214L146.937 9.44402L146.944 9.43575L146.166 8.808ZM141.594 8.976L140.902 9.6982L140.908 9.70414L140.914 9.70996L141.594 8.976ZM140.526 1.704L139.961 2.52931L139.982 2.54385L140.004 2.55728L140.526 1.704ZM139.626 1.548H138.626V2.548H139.626V1.548ZM139.626 1.152V0.151999H138.626V1.152H139.626ZM142.626 1.152H143.626V0.151999H142.626V1.152ZM142.626 1.548V2.548H143.626V1.548H142.626ZM141.714 1.704L141.149 0.878693L141.135 0.887926L141.122 0.897595L141.714 1.704ZM142.194 8.604L141.507 9.33065L141.507 9.33101L142.194 8.604ZM145.398 8.748L144.798 7.948L144.782 7.95965L144.767 7.97189L145.398 8.748ZM146.058 1.704L146.634 0.887033L146.628 0.882819L146.622 0.878693L146.058 1.704ZM145.194 1.548H144.194V2.548H145.194V1.548ZM145.194 1.152V0.151999H144.194V1.152H145.194ZM147.81 1.152H148.81V0.151999H147.81V1.152ZM147.81 0.547999C147.562 0.547999 147.32 0.562779 147.098 0.602912C146.888 0.64085 146.622 0.713908 146.381 0.878693L147.51 2.52931C147.461 2.56317 147.425 2.57615 147.419 2.57826C147.412 2.58069 147.422 2.57678 147.453 2.57109C147.519 2.55922 147.633 2.548 147.81 2.548V0.547999ZM146.354 0.897595C145.859 1.26064 145.766 1.81583 145.766 2.184H147.766C147.766 2.14782 147.771 2.1766 147.747 2.24112C147.719 2.31547 147.656 2.42307 147.537 2.5104L146.354 0.897595ZM145.766 2.184V6.9H147.766V2.184H145.766ZM145.766 6.9C145.766 7.49898 145.615 7.89832 145.387 8.18025L146.944 9.43575C147.517 8.72568 147.766 7.85302 147.766 6.9H145.766ZM145.401 8.16386C145.151 8.46077 144.664 8.72 143.682 8.72V10.72C144.987 10.72 146.157 10.3712 146.931 9.45214L145.401 8.16386ZM143.682 8.72C143.031 8.72 142.593 8.53802 142.273 8.24204L140.914 9.70996C141.667 10.406 142.62 10.72 143.682 10.72V8.72ZM142.285 8.2538C141.948 7.93059 141.742 7.47759 141.742 6.78H139.742C139.742 7.92241 140.103 8.93341 140.902 9.6982L142.285 8.2538ZM141.742 6.78V2.196H139.742V6.78H141.742ZM141.742 2.196C141.742 1.76927 141.604 1.19118 141.047 0.850718L140.004 2.55728C139.891 2.48797 139.813 2.38804 139.772 2.29499C139.737 2.21502 139.742 2.16986 139.742 2.196H141.742ZM141.09 0.878692C140.843 0.709602 140.568 0.638178 140.357 0.601691C140.131 0.562523 139.883 0.547999 139.626 0.547999V2.548C139.816 2.548 139.942 2.55948 140.016 2.57231C140.052 2.5785 140.063 2.58299 140.058 2.58103C140.053 2.57954 140.015 2.56618 139.961 2.52931L141.09 0.878692ZM140.626 1.548V1.152H138.626V1.548H140.626ZM139.626 2.152H142.626V0.151999H139.626V2.152ZM141.626 1.152V1.548H143.626V1.152H141.626ZM142.626 0.547999C142.365 0.547999 142.114 0.562447 141.887 0.601316C141.676 0.63734 141.398 0.708219 141.149 0.878693L142.278 2.52931C142.223 2.56717 142.184 2.58063 142.18 2.58191C142.175 2.58371 142.187 2.57903 142.224 2.57268C142.301 2.55955 142.43 2.548 142.626 2.548V0.547999ZM141.122 0.897595C140.62 1.2661 140.534 1.83448 140.534 2.196H142.534C142.534 2.15242 142.54 2.1758 142.518 2.23658C142.492 2.30693 142.43 2.4187 142.305 2.5104L141.122 0.897595ZM140.534 2.196V6.852H142.534V2.196H140.534ZM140.534 6.852C140.534 7.80791 140.82 8.68195 141.507 9.33065L142.881 7.87735C142.687 7.69405 142.534 7.40009 142.534 6.852H140.534ZM141.507 9.33101C142.17 9.9575 143.033 10.216 143.97 10.216V8.216C143.402 8.216 143.081 8.0665 142.88 7.87699L141.507 9.33101ZM143.97 10.216C144.731 10.216 145.44 10.002 146.028 9.52411L144.767 7.97189C144.587 8.11799 144.344 8.216 143.97 8.216V10.216ZM145.998 9.548C146.864 8.89805 147.262 7.95089 147.262 6.864H145.262C145.262 7.42511 145.083 7.73395 144.798 7.948L145.998 9.548ZM147.262 6.864V2.184H145.262V6.864H147.262ZM147.262 2.184C147.262 1.7578 147.122 1.23148 146.634 0.887033L145.481 2.52097C145.39 2.45686 145.326 2.37031 145.29 2.28714C145.259 2.21332 145.262 2.16928 145.262 2.184H147.262ZM146.622 0.878693C146.381 0.713908 146.115 0.64085 145.905 0.602912C145.683 0.562779 145.441 0.547999 145.194 0.547999V2.548C145.37 2.548 145.484 2.55922 145.55 2.57109C145.581 2.57678 145.591 2.58069 145.584 2.57826C145.578 2.57615 145.542 2.56317 145.493 2.52931L146.622 0.878693ZM146.194 1.548V1.152H144.194V1.548H146.194ZM145.194 2.152H147.81V0.151999H145.194V2.152ZM146.81 1.152V1.548H148.81V1.152H146.81ZM158.864 9.516V10.516H159.864V9.516H158.864ZM157.304 9.516L156.424 9.99195L156.708 10.516H157.304V9.516ZM156.2 7.512L155.325 7.99675L155.328 8.00125L156.2 7.512ZM155.096 5.496L155.975 5.02005L155.692 4.496H155.096V5.496ZM153.524 5.496V4.496H152.524V5.496H153.524ZM153.74 8.964L153.154 9.77468L153.186 9.79773L153.22 9.8182L153.74 8.964ZM154.616 9.132H155.616V8.132H154.616V9.132ZM154.616 9.516V10.516H155.616V9.516H154.616ZM151.652 9.516H150.652V10.516H151.652V9.516ZM151.652 9.132V8.132H150.652V9.132H151.652ZM152.552 8.964L153.125 9.78323L153.16 9.75913L153.192 9.73222L152.552 8.964ZM152.54 1.74L151.92 2.52488L151.933 2.53519L151.947 2.54506L152.54 1.74ZM151.652 1.56H150.652V2.56H151.652V1.56ZM151.652 1.152V0.151999H150.652V1.152H151.652ZM157.724 4.584L158.522 5.18609L158.529 5.17752L158.535 5.1688L157.724 4.584ZM155.912 5.46L155.798 4.46647L154.296 4.63815L155.042 5.95334L155.912 5.46ZM156.812 7.056L155.94 7.54501L155.94 7.54501L156.812 7.056ZM157.712 8.652L156.842 9.14534L156.846 9.15307L156.851 9.16073L157.712 8.652ZM158.12 9.024L157.726 9.94314L157.734 9.94641L157.741 9.94955L158.12 9.024ZM158.864 9.132H159.864V8.132H158.864V9.132ZM156.764 2.052L156.11 2.80882L156.112 2.81001L156.764 2.052ZM153.704 1.74L153.026 1.00519L153.022 1.00894L153.704 1.74ZM153.524 5.028H152.524V6.028H153.524V5.028ZM156.776 4.56L157.465 5.28456L157.474 5.27594L157.483 5.26711L156.776 4.56ZM158.864 8.516H157.304V10.516H158.864V8.516ZM158.183 9.04005C157.813 8.35572 157.443 7.68329 157.072 7.02275L155.328 8.00125C155.693 8.65271 156.059 9.31628 156.424 9.99195L158.183 9.04005ZM157.074 7.02725C156.708 6.36623 156.342 5.69716 155.975 5.02005L154.216 5.97195C154.586 6.65484 154.956 7.32977 155.325 7.99675L157.074 7.02725ZM155.096 4.496H153.524V6.496H155.096V4.496ZM152.524 5.496V8.376H154.524V5.496H152.524ZM152.524 8.376C152.524 8.78365 152.621 9.38964 153.154 9.77468L154.325 8.15332C154.442 8.23727 154.496 8.33875 154.517 8.39418C154.533 8.43978 154.524 8.44379 154.524 8.376H152.524ZM153.22 9.8182C153.645 10.0769 154.166 10.132 154.616 10.132V8.132C154.459 8.132 154.352 8.12072 154.285 8.1079C154.215 8.09444 154.219 8.08502 154.26 8.1098L153.22 9.8182ZM153.616 9.132V9.516H155.616V9.132H153.616ZM154.616 8.516H151.652V10.516H154.616V8.516ZM152.652 9.516V9.132H150.652V9.516H152.652ZM151.652 10.132C151.909 10.132 152.16 10.1161 152.39 10.073C152.61 10.032 152.881 9.95406 153.125 9.78323L151.978 8.14477C152.025 8.11216 152.058 8.09984 152.063 8.09818C152.068 8.09629 152.057 8.10076 152.023 8.10698C151.954 8.11994 151.835 8.132 151.652 8.132V10.132ZM153.192 9.73222C153.646 9.35392 153.768 8.82234 153.768 8.388H151.768C151.768 8.4329 151.761 8.42224 151.778 8.37888C151.797 8.32819 151.838 8.25703 151.912 8.19578L153.192 9.73222ZM153.768 8.388V2.244H151.768V8.388H153.768ZM153.768 2.244C153.768 1.76929 153.59 1.27194 153.133 0.934944L151.947 2.54506C151.888 2.50201 151.834 2.43805 151.8 2.36217C151.768 2.29193 151.768 2.24424 151.768 2.244H153.768ZM153.159 0.955117C152.911 0.758549 152.627 0.670356 152.403 0.624932C152.167 0.577173 151.911 0.56 151.652 0.56V2.56C151.832 2.56 151.945 2.57283 152.005 2.58507C152.034 2.59086 152.038 2.59409 152.026 2.58915C152.014 2.5844 151.973 2.56658 151.92 2.52488L153.159 0.955117ZM152.652 1.56V1.152H150.652V1.56H152.652ZM151.652 2.152H155.348V0.151999H151.652V2.152ZM155.348 2.152C156.161 2.152 156.587 2.31556 156.793 2.47687C156.953 2.60156 157.096 2.81286 157.096 3.3H159.096C159.096 2.35514 158.781 1.49244 158.025 0.901132C157.315 0.346443 156.367 0.151999 155.348 0.151999V2.152ZM157.096 3.3C157.096 3.64655 157.014 3.85832 156.913 3.9992L158.535 5.1688C158.929 4.62168 159.096 3.97745 159.096 3.3H157.096ZM156.925 3.98191C156.778 4.17772 156.473 4.38933 155.798 4.46647L156.025 6.45353C157.03 6.33867 157.934 5.96628 158.522 5.18609L156.925 3.98191ZM155.042 5.95334C155.345 6.48792 155.644 7.01848 155.94 7.54501L157.684 6.56699C157.387 6.03752 157.086 5.50408 156.782 4.96666L155.042 5.95334ZM155.94 7.54501C156.236 8.07448 156.537 8.60792 156.842 9.14534L158.582 8.15866C158.278 7.62408 157.979 7.09352 157.684 6.56699L155.94 7.54501ZM156.851 9.16073C157.05 9.49698 157.34 9.77761 157.726 9.94314L158.514 8.10486C158.533 8.11317 158.552 8.1253 158.566 8.13804C158.579 8.15002 158.58 8.15503 158.573 8.14327L156.851 9.16073ZM157.741 9.94955C158.092 10.0932 158.491 10.132 158.864 10.132V8.132C158.739 8.132 158.647 8.12488 158.581 8.11537C158.514 8.10561 158.492 8.09563 158.498 8.09845L157.741 9.94955ZM157.864 9.132V9.516H159.864V9.132H157.864ZM158.28 3.276C158.28 2.51201 158.014 1.80876 157.416 1.29399L156.112 2.81001C156.201 2.88724 156.28 2.99999 156.28 3.276H158.28ZM157.417 1.29518C156.841 0.797357 156.121 0.595999 155.36 0.595999V2.596C155.767 2.596 155.983 2.69864 156.11 2.80882L157.417 1.29518ZM155.36 0.595999H154.304V2.596H155.36V0.595999ZM154.304 0.595999C154.108 0.595999 153.9 0.611195 153.698 0.659612C153.503 0.706601 153.247 0.800495 153.026 1.0052L154.382 2.4748C154.321 2.53095 154.265 2.56332 154.228 2.58074C154.192 2.59795 154.168 2.6037 154.165 2.60439C154.162 2.60519 154.171 2.60278 154.196 2.60035C154.221 2.59796 154.256 2.596 154.304 2.596V0.595999ZM153.022 1.00894C152.64 1.36477 152.524 1.8307 152.524 2.232H154.524C154.524 2.21446 154.527 2.23991 154.508 2.29058C154.488 2.34645 154.448 2.41305 154.386 2.47106L153.022 1.00894ZM152.524 2.232V5.028H154.524V2.232H152.524ZM153.524 6.028H155.504V4.028H153.524V6.028ZM155.504 6.028C156.239 6.028 156.923 5.7998 157.465 5.28456L156.087 3.83544C155.972 3.9442 155.808 4.028 155.504 4.028V6.028ZM157.483 5.26711C158.025 4.72496 158.28 4.03369 158.28 3.276H156.28C156.28 3.55831 156.199 3.72304 156.069 3.85289L157.483 5.26711Z" fill="#3215E3"/>
</g>
<defs>
<filter id="filter0_d_307_3" x="0.360001" y="0.936035" width="162.504" height="16.7839" filterUnits="userSpaceOnUse" color-interpolation-filters="sRGB">
<feFlood flood-opacity="0" result="BackgroundImageFix"/>
<feColorMatrix in="SourceAlpha" type="matrix" values="0 0 0 0 0 0 0 0 0 0 0 0 0 0 0 0 0 0 127 0" result="hardAlpha"/>
<feOffset dy="4"/>
<feGaussianBlur stdDeviation="2"/>
<feComposite in2="hardAlpha" operator="out"/>
<feColorMatrix type="matrix" values="0 0 0 0 0 0 0 0 0 0 0 0 0 0 0 0 0 0 0.25 0"/>
<feBlend mode="normal" in2="BackgroundImageFix" result="effect1_dropShadow_307_3"/>
<feBlend mode="normal" in="SourceGraphic" in2="effect1_dropShadow_307_3" result="shape"/>
</filter>
</defs>
</svg>
